<?xml version="1.0" encoding="utf-8"?>
<!-- Generator: Adobe Illustrator 24.0.1, SVG Export Plug-In . SVG Version: 6.00 Build 0)  -->
<svg version="1.1" id="图层_1" xmlns="http://www.w3.org/2000/svg" xmlns:xlink="http://www.w3.org/1999/xlink" x="0px" y="0px"
	 viewBox="0 0 1024 1024" style="enable-background:new 0 0 1024 1024;" xml:space="preserve">
<style type="text/css">
	.st0{fill:none;stroke:#000000;stroke-width:40;stroke-linecap:round;stroke-linejoin:round;stroke-miterlimit:10;}
	.st1{fill:none;stroke:#000000;stroke-width:40;stroke-linecap:round;stroke-miterlimit:10;}
	.st2{fill:none;stroke:#000000;stroke-width:40;stroke-miterlimit:10;}
</style>
<g>
	<path d="M857.64,313.95c0-0.6-0.04-1.2-0.09-1.8c-0.02-0.24-0.06-0.48-0.09-0.73c-0.05-0.37-0.1-0.73-0.17-1.09
		c-0.05-0.29-0.12-0.58-0.19-0.86c-0.07-0.3-0.15-0.6-0.23-0.9c-0.09-0.3-0.18-0.6-0.28-0.9c-0.09-0.28-0.2-0.55-0.3-0.82
		c-0.11-0.29-0.23-0.59-0.35-0.88c-0.12-0.28-0.26-0.55-0.4-0.82c-0.13-0.27-0.26-0.54-0.4-0.8c-0.2-0.36-0.42-0.71-0.64-1.05
		c-0.14-0.23-0.29-0.45-0.44-0.67c-0.28-0.4-0.56-0.79-0.87-1.17L651.08,51.67c-0.02-0.03-0.05-0.05-0.07-0.08
		c-0.05-0.07-0.11-0.13-0.16-0.19c-0.35-0.41-0.7-0.81-1.08-1.19c-0.05-0.05-0.09-0.1-0.14-0.14c-0.4-0.4-0.81-0.77-1.24-1.13
		c-0.09-0.07-0.18-0.15-0.26-0.22c-0.42-0.34-0.85-0.66-1.29-0.97c-0.11-0.07-0.21-0.14-0.32-0.21c-0.44-0.29-0.9-0.57-1.36-0.83
		c-0.1-0.06-0.2-0.1-0.31-0.16c-0.41-0.21-0.82-0.41-1.25-0.6c-0.14-0.06-0.28-0.13-0.42-0.19c-0.47-0.19-0.95-0.36-1.43-0.52
		c-0.16-0.05-0.33-0.11-0.49-0.16c-0.49-0.15-0.99-0.28-1.5-0.39c-0.15-0.03-0.29-0.06-0.44-0.09c-0.55-0.11-1.1-0.19-1.65-0.25
		c-0.09-0.01-0.18-0.01-0.27-0.02c-0.62-0.06-1.24-0.09-1.87-0.09H228.87c-38.8,0-70.37,31.57-70.37,70.37v799.26
		c0,38.8,31.57,70.37,70.37,70.37h558.4c38.8,0,70.37-31.57,70.37-70.37V314.04c0,0,0-0.01,0-0.01c0,0,0,0,0-0.01
		C857.64,314,857.64,313.97,857.64,313.95z M655.54,120.77l140.22,173.3l-140.22,0.1V120.77z M787.27,944.25h-558.4
		c-16.75,0-30.37-13.62-30.37-30.37V114.62c0-16.75,13.62-30.37,30.37-30.37h386.67v229.93c0,5.31,2.11,10.4,5.86,14.15
		c3.75,3.75,8.84,5.85,14.14,5.85c0,0,0.01,0,0.01,0l182.09-0.13v579.83C817.64,930.63,804.02,944.25,787.27,944.25z"/>
</g>
</svg>
