<?xml version="1.0" encoding="utf-8"?>
<!-- Generator: Adobe Illustrator 24.0.1, SVG Export Plug-In . SVG Version: 6.00 Build 0)  -->
<svg version="1.1" id="图层_1" xmlns="http://www.w3.org/2000/svg" xmlns:xlink="http://www.w3.org/1999/xlink" x="0px" y="0px"
	 viewBox="0 0 1024 1024" style="enable-background:new 0 0 1024 1024;" xml:space="preserve">
<style type="text/css">
	.st0{fill:none;stroke:#000000;stroke-width:40;stroke-linecap:round;stroke-linejoin:round;stroke-miterlimit:10;}
	.st1{fill:none;stroke:#000000;stroke-width:40;stroke-linecap:round;stroke-miterlimit:10;}
	.st2{fill:none;stroke:#000000;stroke-width:40;stroke-miterlimit:10;}
</style>
<g>
	<path d="M900.06,308.44v-27.93c0-42.11-31.07-76.37-69.27-76.37H534.86c-0.29-1.99-0.57-3.98-0.86-5.95l-0.18-1.26l-0.34-1.23
		c-9.16-33.19-46.17-59.19-84.25-59.19H109.38c-18.76,0-36.54,6.27-50.08,17.65c-14.58,12.26-22.61,28.9-22.61,46.85v96.81
		c0,1.78,0.08,3.58,0.24,5.43c-0.12,0.99-0.24,2.24-0.24,3.67v512.42c0,41.62,36,75.49,80.25,75.49h782.27
		c44.25,0,80.25-33.86,80.25-75.49V383.9C979.46,342.55,943.92,308.87,900.06,308.44z M830.8,244.14
		c16.14,0,29.27,16.32,29.27,36.37v27.91H551.38c-2.65-14.04-6.54-37.93-10.57-64.28H830.8z M939.46,819.36
		c0,19.57-18.06,35.49-40.25,35.49H116.94c-22.19,0-40.25-15.92-40.25-35.49v-511.6c0.1-0.65,0.23-1.57,0.32-2.67l0.16-2.01l-0.25-2
		c-0.15-1.2-0.22-2.26-0.22-3.24v-96.81c0-13.28,14.97-24.51,32.69-24.51h339.86c19.52,0,40.38,13.34,45.39,28.8
		c0.95,6.61,5.03,34.72,9.39,62.51c2.93,18.66,5.42,33.57,7.39,44.31c1.23,6.71,2.26,11.76,3.14,15.45
		c0.59,2.49,1.12,4.38,1.67,5.96c3.8,10.97,12.68,14.88,19.71,14.88h363.28c22.19,0,40.25,15.92,40.25,35.49V819.36z"/>
</g>
</svg>
