<?xml version="1.0" encoding="utf-8"?>
<!-- Generator: Adobe Illustrator 24.0.1, SVG Export Plug-In . SVG Version: 6.00 Build 0)  -->
<svg version="1.1" id="图层_1" xmlns="http://www.w3.org/2000/svg" xmlns:xlink="http://www.w3.org/1999/xlink" x="0px" y="0px"
	 viewBox="0 0 1024 1024" style="enable-background:new 0 0 1024 1024;" xml:space="preserve">
<style type="text/css">
	.st0{fill:none;stroke:#000000;stroke-width:40;stroke-linecap:round;stroke-linejoin:round;stroke-miterlimit:10;}
	.st1{fill:none;stroke:#000000;stroke-width:40;stroke-linecap:round;stroke-miterlimit:10;}
	.st2{fill:none;stroke:#000000;stroke-width:40;stroke-miterlimit:10;}
</style>
<g>
	<path d="M839.86,42.82H196.43c-46.54,0-84.4,37.86-84.4,84.4v771.21c0,46.54,37.86,84.4,84.4,84.4h643.43
		c46.54,0,84.39-37.86,84.39-84.4V127.21C924.26,80.68,886.4,42.82,839.86,42.82z M884.26,898.42c0,24.48-19.92,44.4-44.39,44.4
		H196.43c-24.48,0-44.4-19.92-44.4-44.4V127.21c0-24.48,19.92-44.4,44.4-44.4h643.43c24.48,0,44.39,19.92,44.39,44.4V898.42z"/>
	<path d="M716.85,242.62H319.44c-11.05,0-20,8.95-20,20s8.95,20,20,20h397.41c11.05,0,20-8.95,20-20S727.9,242.62,716.85,242.62z"/>
	<path d="M716.85,440.3H319.44c-11.05,0-20,8.95-20,20s8.95,20,20,20h397.41c11.05,0,20-8.95,20-20S727.9,440.3,716.85,440.3z"/>
	<path d="M576.88,637.98H319.44c-11.05,0-20,8.95-20,20s8.95,20,20,20h257.44c11.05,0,20-8.95,20-20S587.92,637.98,576.88,637.98z"
		/>
</g>
</svg>
