<?xml version="1.0" encoding="utf-8"?>
<!-- Generator: Adobe Illustrator 24.0.1, SVG Export Plug-In . SVG Version: 6.00 Build 0)  -->
<svg version="1.1" id="图层_1" xmlns="http://www.w3.org/2000/svg" xmlns:xlink="http://www.w3.org/1999/xlink" x="0px" y="0px"
	 viewBox="0 0 1024 1024" style="enable-background:new 0 0 1024 1024;" xml:space="preserve">
<style type="text/css">
	.st0{fill:none;stroke:#000000;stroke-width:40;stroke-linecap:round;stroke-linejoin:round;stroke-miterlimit:10;}
	.st1{fill:none;stroke:#000000;stroke-width:40;stroke-linecap:round;stroke-miterlimit:10;}
	.st2{fill:none;stroke:#000000;stroke-width:40;stroke-miterlimit:10;}
</style>
<g>
	<path d="M865.19,224.36H148.55c-61.58,0-111.68,50.1-111.68,111.68v458.43c0,61.58,50.1,111.68,111.68,111.68h716.64
		c61.58,0,111.68-50.1,111.68-111.68V336.04C976.87,274.46,926.77,224.36,865.19,224.36z M936.87,794.48
		c0,39.53-32.16,71.68-71.68,71.68H148.55c-39.53,0-71.68-32.16-71.68-71.68V336.04c0-39.53,32.16-71.68,71.68-71.68h716.64
		c39.53,0,71.68,32.16,71.68,71.68V794.48z"/>
	<path d="M111.6,160.91h395.27c11.05,0,20-8.95,20-20s-8.95-20-20-20H111.6c-11.05,0-20,8.95-20,20S100.56,160.91,111.6,160.91z"/>
</g>
</svg>
