<?xml version="1.0" encoding="utf-8"?>
<!-- Generator: Adobe Illustrator 24.0.1, SVG Export Plug-In . SVG Version: 6.00 Build 0)  -->
<svg version="1.1" id="图层_1" xmlns="http://www.w3.org/2000/svg" xmlns:xlink="http://www.w3.org/1999/xlink" x="0px" y="0px"
	 viewBox="0 0 1024 1024" style="enable-background:new 0 0 1024 1024;" xml:space="preserve">
<style type="text/css">
	.st0{fill:none;stroke:#000000;stroke-width:40;stroke-linecap:round;stroke-linejoin:round;stroke-miterlimit:10;}
	.st1{fill:none;stroke:#000000;stroke-width:40;stroke-linecap:round;stroke-miterlimit:10;}
	.st2{fill:none;stroke:#000000;stroke-width:40;stroke-miterlimit:10;}
</style>
<g>
	<path d="M131.27,217.99v696.98c0,38.6,31.4,70,70,70h483.69c38.6,0,70-31.4,70-70v-33.02h63.24c35.44,0,64.28-28.83,64.28-64.28
		V109.24c0-35.44-28.83-64.28-64.28-64.28H323.06c-35.44,0-64.28,28.83-64.28,64.28v38.75h-57.52
		C162.67,147.99,131.27,179.39,131.27,217.99z M298.78,109.24c0-13.39,10.89-24.28,24.28-24.28H818.2
		c13.39,0,24.28,10.89,24.28,24.28v708.42c0,13.39-10.89,24.28-24.28,24.28h-63.24V217.99c0-38.6-31.4-70-70-70H298.78V109.24z
		 M171.27,217.99c0-16.54,13.46-30,30-30h483.69c16.54,0,30,13.46,30,30v696.98c0,16.54-13.46,30-30,30H201.27
		c-16.54,0-30-13.46-30-30V217.99z"/>
	<path d="M259.4,377.63h367.43c11.05,0,20-8.95,20-20s-8.95-20-20-20H259.4c-11.05,0-20,8.95-20,20S248.35,377.63,259.4,377.63z"/>
	<path d="M259.4,562h296.59c11.05,0,20-8.95,20-20s-8.95-20-20-20H259.4c-11.05,0-20,8.95-20,20S248.35,562,259.4,562z"/>
	<path d="M259.4,746.38h208.04c11.05,0,20-8.95,20-20s-8.95-20-20-20H259.4c-11.05,0-20,8.95-20,20S248.35,746.38,259.4,746.38z"/>
</g>
</svg>
