<?xml version="1.0" encoding="utf-8"?>
<!-- Generator: Adobe Illustrator 24.0.1, SVG Export Plug-In . SVG Version: 6.00 Build 0)  -->
<svg version="1.1" id="图层_1" xmlns="http://www.w3.org/2000/svg" xmlns:xlink="http://www.w3.org/1999/xlink" x="0px" y="0px"
	 viewBox="0 0 1024 1024" style="enable-background:new 0 0 1024 1024;" xml:space="preserve">
<style type="text/css">
	.st0{fill:none;stroke:#000000;stroke-width:40;stroke-linecap:round;stroke-linejoin:round;stroke-miterlimit:10;}
	.st1{fill:none;stroke:#000000;stroke-width:40;stroke-linecap:round;stroke-miterlimit:10;}
	.st2{fill:none;stroke:#000000;stroke-width:40;stroke-miterlimit:10;}
</style>
<g>
	<path d="M137.36,112.82v800c0,38.6,31.4,70,70,70H805.6c38.6,0,70-31.4,70-70v-800c0-38.6-31.4-70-70-70H207.36
		C168.76,42.82,137.36,74.22,137.36,112.82z M835.6,112.82v800c0,16.54-13.46,30-30,30H207.36c-16.54,0-30-13.46-30-30v-800
		c0-16.54,13.46-30,30-30H805.6C822.14,82.82,835.6,96.28,835.6,112.82z"/>
	<path d="M286.71,296.98h439.54c11.05,0,20-8.95,20-20s-8.95-20-20-20H286.71c-11.05,0-20,8.95-20,20S275.66,296.98,286.71,296.98z"
		/>
	<path d="M286.71,505.18h439.54c11.05,0,20-8.95,20-20s-8.95-20-20-20H286.71c-11.05,0-20,8.95-20,20S275.66,505.18,286.71,505.18z"
		/>
	<path d="M286.71,713.39h439.54c11.05,0,20-8.95,20-20s-8.95-20-20-20H286.71c-11.05,0-20,8.95-20,20S275.66,713.39,286.71,713.39z"
		/>
</g>
</svg>
