<?xml version="1.0" encoding="utf-8"?>
<!-- Generator: Adobe Illustrator 24.0.1, SVG Export Plug-In . SVG Version: 6.00 Build 0)  -->
<svg version="1.1" id="图层_1" xmlns="http://www.w3.org/2000/svg" xmlns:xlink="http://www.w3.org/1999/xlink" x="0px" y="0px"
	 viewBox="0 0 1024 1024" style="enable-background:new 0 0 1024 1024;" xml:space="preserve">
<style type="text/css">
	.st0{fill:none;stroke:#000000;stroke-width:40;stroke-linecap:round;stroke-linejoin:round;stroke-miterlimit:10;}
	.st1{fill:none;stroke:#000000;stroke-width:40;stroke-linecap:round;stroke-miterlimit:10;}
	.st2{fill:none;stroke:#000000;stroke-width:40;stroke-miterlimit:10;}
</style>
<g>
	<path d="M902.46,126.38H273.24c-0.63,0-1.25,0.04-1.87,0.09c-0.09,0.01-0.18,0.01-0.27,0.02c-0.56,0.06-1.11,0.15-1.65,0.25
		c-0.15,0.03-0.29,0.06-0.44,0.09c-0.51,0.11-1.01,0.24-1.5,0.39c-0.17,0.05-0.33,0.1-0.49,0.16c-0.48,0.16-0.96,0.33-1.43,0.52
		c-0.14,0.06-0.27,0.12-0.41,0.18c-0.43,0.19-0.85,0.39-1.26,0.61c-0.09,0.05-0.19,0.1-0.29,0.15c-0.47,0.26-0.93,0.54-1.38,0.84
		c-0.1,0.07-0.21,0.14-0.31,0.21c-0.45,0.31-0.88,0.63-1.3,0.97c-0.09,0.07-0.17,0.14-0.26,0.21c-0.43,0.36-0.85,0.74-1.25,1.13
		c-0.04,0.04-0.08,0.09-0.13,0.13c-0.38,0.38-0.74,0.78-1.09,1.19c-0.05,0.06-0.11,0.12-0.16,0.19c-0.02,0.03-0.05,0.05-0.07,0.08
		L40.93,401.7c-0.33,0.41-0.65,0.84-0.94,1.27c-0.11,0.16-0.21,0.32-0.31,0.48c-0.24,0.38-0.48,0.76-0.7,1.15
		c-0.14,0.25-0.26,0.51-0.39,0.76c-0.14,0.28-0.28,0.56-0.41,0.85c-0.12,0.28-0.23,0.57-0.35,0.86c-0.11,0.28-0.21,0.56-0.31,0.84
		c-0.1,0.29-0.19,0.59-0.27,0.89c-0.09,0.3-0.16,0.61-0.24,0.91c-0.07,0.28-0.13,0.57-0.19,0.86c-0.07,0.36-0.12,0.73-0.17,1.1
		c-0.03,0.24-0.07,0.48-0.09,0.72c-0.06,0.6-0.09,1.2-0.09,1.8c0,0.02,0,0.05,0,0.07c0,0,0,0,0,0.01c0,0,0,0,0,0.01V832.4
		c0,40.82,33.21,74.02,74.02,74.02h791.95c40.82,0,74.02-33.21,74.02-74.02V200.4C976.48,159.58,943.27,126.38,902.46,126.38z
		 M253.24,202.89v191.53l-154.88-0.11L253.24,202.89z M936.48,832.4c0,18.76-15.26,34.02-34.02,34.02H110.5
		c-18.76,0-34.02-15.26-34.02-34.02v-398.1l196.75,0.14c0,0,0.01,0,0.01,0c5.3,0,10.39-2.11,14.14-5.85
		c3.75-3.75,5.86-8.84,5.86-14.15V166.38h609.21c18.76,0,34.02,15.26,34.02,34.02V832.4z"/>
	<polygon points="311.17,577.83 249.14,577.83 249.14,519.08 218.12,519.08 218.12,664.67 249.14,664.67 249.14,604.61 
		311.17,604.61 311.17,664.67 342.19,664.67 342.19,519.08 311.17,519.08 	"/>
	<polygon points="381.83,544.46 423.28,544.46 423.28,664.67 454.39,664.67 454.39,544.46 495.94,544.46 495.94,519.08 
		381.83,519.08 	"/>
	<path d="M623.65,606.87c-2.07,5.83-4.07,12.72-6.02,20.68h-0.66c-0.94-6.39-2.73-13.22-5.36-20.49l-31.39-87.97h-45.12v145.59
		h28.01v-82.33c0-12.28-0.41-24.53-1.22-36.75h0.85c2.19,10.71,3.73,17.26,4.61,19.64l36.37,99.44h24.72l35.9-100.38
		c1.13-3.13,2.63-9.37,4.51-18.7h0.75c-0.81,12.35-1.22,22.59-1.22,30.73v88.35h30.64V519.08h-43.89L623.65,606.87z"/>
	<polygon points="783.32,519.08 752.3,519.08 752.3,664.67 837.74,664.67 837.74,639.29 783.32,639.29 	"/>
</g>
</svg>
