<?xml version="1.0" encoding="utf-8"?>
<!-- Generator: Adobe Illustrator 24.0.1, SVG Export Plug-In . SVG Version: 6.00 Build 0)  -->
<svg version="1.1" id="图层_1" xmlns="http://www.w3.org/2000/svg" xmlns:xlink="http://www.w3.org/1999/xlink" x="0px" y="0px"
	 viewBox="0 0 1024 1024" style="enable-background:new 0 0 1024 1024;" xml:space="preserve">
<style type="text/css">
	.st0{fill:none;stroke:#000000;stroke-width:40;stroke-linecap:round;stroke-linejoin:round;stroke-miterlimit:10;}
	.st1{fill:none;stroke:#000000;stroke-width:40;stroke-linecap:round;stroke-miterlimit:10;}
	.st2{fill:none;stroke:#000000;stroke-width:40;stroke-miterlimit:10;}
</style>
<g>
	<path d="M129.27,982.1h777.76c11.05,0,20-8.95,20-20V661.21c0-0.17-0.02-0.33-0.02-0.49c-0.01-0.36-0.03-0.72-0.05-1.08
		c-0.03-0.36-0.07-0.71-0.11-1.07c-0.02-0.17-0.03-0.33-0.05-0.5L831.76,58.97c-1.54-9.71-9.92-16.87-19.75-16.87H224.29
		c-9.84,0-18.21,7.15-19.75,16.87l-95.02,599.11c-0.03,0.17-0.03,0.33-0.05,0.49c-0.05,0.35-0.09,0.71-0.11,1.07
		c-0.03,0.36-0.04,0.72-0.05,1.07c0,0.17-0.02,0.33-0.02,0.5V962.1C109.27,973.15,118.22,982.1,129.27,982.1z M887.03,942.1H149.27
		V681.21h218.07v71.73c0,11.05,8.95,20,20,20h261.62c11.05,0,20-8.95,20-20v-71.73h218.07V942.1z M241.37,82.1h553.56l88.68,559.11
		H648.96c-11.05,0-20,8.95-20,20v71.73H407.34v-71.73c0-11.05-8.95-20-20-20H152.69L241.37,82.1z"/>
	<path d="M396.28,381.66h243.73c11.05,0,20-8.95,20-20s-8.95-20-20-20H396.28c-11.05,0-20,8.95-20,20S385.24,381.66,396.28,381.66z"
		/>
</g>
</svg>
