<?xml version="1.0" encoding="utf-8"?>
<!-- Generator: Adobe Illustrator 24.0.1, SVG Export Plug-In . SVG Version: 6.00 Build 0)  -->
<svg version="1.1" id="图层_1" xmlns="http://www.w3.org/2000/svg" xmlns:xlink="http://www.w3.org/1999/xlink" x="0px" y="0px"
	 viewBox="0 0 1024 1024" style="enable-background:new 0 0 1024 1024;" xml:space="preserve">
<style type="text/css">
	.st0{fill:none;stroke:#000000;stroke-width:40;stroke-linecap:round;stroke-linejoin:round;stroke-miterlimit:10;}
	.st1{fill:none;stroke:#000000;stroke-width:40;stroke-linecap:round;stroke-miterlimit:10;}
	.st2{fill:none;stroke:#000000;stroke-width:40;stroke-miterlimit:10;}
</style>
<g>
	<path d="M631.37,746.78h-379.2c-11.05,0-20,8.95-20,20s8.95,20,20,20h379.2c11.05,0,20-8.95,20-20S642.42,746.78,631.37,746.78z"/>
	<path d="M232.17,587.3c0,11.05,8.95,20,20,20h287.81c11.05,0,20-8.95,20-20s-8.95-20-20-20H252.17
		C241.12,567.3,232.17,576.25,232.17,587.3z"/>
	<path d="M252.17,427.81h165.97c11.05,0,20-8.95,20-20s-8.95-20-20-20H252.17c-11.05,0-20,8.95-20,20S241.12,427.81,252.17,427.81z"
		/>
	<path d="M915.71,293.88c0-0.6-0.04-1.2-0.09-1.8c-0.02-0.24-0.06-0.48-0.09-0.72c-0.05-0.37-0.1-0.73-0.17-1.09
		c-0.05-0.29-0.12-0.57-0.19-0.86c-0.07-0.31-0.15-0.61-0.23-0.91c-0.08-0.3-0.17-0.6-0.27-0.89c-0.09-0.28-0.2-0.56-0.31-0.84
		c-0.11-0.29-0.22-0.58-0.35-0.87c-0.13-0.28-0.27-0.56-0.4-0.84c-0.13-0.26-0.25-0.52-0.39-0.78c-0.21-0.38-0.44-0.74-0.67-1.1
		c-0.12-0.19-0.24-0.39-0.37-0.57c-0.29-0.42-0.59-0.83-0.91-1.23L726.56,53.1c-0.02-0.03-0.05-0.05-0.07-0.08
		c-0.05-0.06-0.1-0.12-0.16-0.18c-0.35-0.42-0.71-0.82-1.09-1.2c-0.04-0.04-0.08-0.09-0.12-0.13c-0.4-0.4-0.82-0.77-1.25-1.14
		c-0.08-0.07-0.17-0.14-0.25-0.21c-0.42-0.34-0.86-0.67-1.3-0.97c-0.1-0.07-0.21-0.14-0.31-0.21c-0.45-0.3-0.91-0.58-1.38-0.84
		c-0.09-0.05-0.19-0.09-0.28-0.14c-0.41-0.22-0.84-0.42-1.26-0.61c-0.14-0.06-0.27-0.12-0.41-0.18c-0.47-0.19-0.95-0.37-1.43-0.52
		c-0.16-0.05-0.32-0.11-0.49-0.16c-0.5-0.15-1-0.28-1.51-0.39c-0.14-0.03-0.29-0.06-0.44-0.09c-0.55-0.11-1.1-0.19-1.65-0.25
		c-0.09-0.01-0.18-0.01-0.27-0.02c-0.62-0.06-1.24-0.09-1.87-0.09H339.36c-36.41,0-66.03,29.62-66.03,66.03v66.29h-86.72
		c-36.41,0-66.03,29.62-66.03,66.03v675.61c0,36.41,29.62,66.03,66.03,66.03h510.32c36.41,0,66.03-29.62,66.03-66.03v-66.29h86.72
		c36.41,0,66.03-29.62,66.03-66.03V293.96c0,0,0,0,0-0.01c0,0,0,0,0-0.01C915.72,293.92,915.71,293.9,915.71,293.88z M731.01,122.2
		l122.82,151.79l-122.82,0.09V122.2z M696.93,945.68H186.61c-14.35,0-26.03-11.68-26.03-26.03V244.04
		c0-14.35,11.68-26.03,26.03-26.03h351.65v208.41c0,5.31,2.11,10.4,5.86,14.15c3.75,3.75,8.83,5.85,14.14,5.85c0,0,0.01,0,0.01,0
		l164.69-0.12v473.35C722.96,934,711.29,945.68,696.93,945.68z M701.08,406.32l-122.82,0.09V254.52L701.08,406.32z M849.68,813.36
		h-86.72V426.29c0,0,0-0.01,0-0.01s0,0,0-0.01c0-0.03,0-0.05,0-0.07c0-0.6-0.04-1.2-0.09-1.79c-0.02-0.25-0.06-0.49-0.09-0.73
		c-0.05-0.36-0.1-0.73-0.17-1.09c-0.05-0.29-0.12-0.58-0.19-0.86c-0.07-0.3-0.15-0.6-0.23-0.9c-0.09-0.3-0.18-0.6-0.28-0.9
		c-0.09-0.28-0.2-0.55-0.3-0.83c-0.11-0.29-0.23-0.59-0.35-0.87c-0.12-0.28-0.26-0.55-0.4-0.83c-0.13-0.26-0.25-0.53-0.4-0.79
		c-0.2-0.37-0.43-0.72-0.66-1.08c-0.13-0.21-0.26-0.42-0.4-0.62c-0.28-0.41-0.58-0.81-0.89-1.2L573.81,185.43
		c-0.02-0.03-0.05-0.05-0.07-0.08c-0.05-0.06-0.11-0.12-0.16-0.19c-0.35-0.42-0.71-0.81-1.09-1.2c-0.04-0.04-0.08-0.09-0.13-0.13
		c-0.4-0.4-0.82-0.77-1.25-1.13c-0.08-0.07-0.17-0.14-0.26-0.21c-0.42-0.34-0.86-0.67-1.3-0.97c-0.1-0.07-0.21-0.14-0.31-0.21
		c-0.45-0.3-0.91-0.58-1.38-0.84c-0.09-0.05-0.19-0.1-0.29-0.15c-0.41-0.22-0.83-0.42-1.26-0.61c-0.14-0.06-0.27-0.12-0.41-0.18
		c-0.47-0.19-0.95-0.37-1.43-0.52c-0.16-0.05-0.32-0.11-0.49-0.16c-0.5-0.15-1-0.28-1.51-0.39c-0.14-0.03-0.29-0.06-0.44-0.09
		c-0.55-0.11-1.1-0.19-1.65-0.25c-0.09-0.01-0.18-0.01-0.27-0.02c-0.62-0.06-1.24-0.09-1.87-0.09H313.33v-66.29
		c0-14.35,11.68-26.03,26.03-26.03h351.65v208.41c0,5.31,2.11,10.4,5.86,14.15c3.75,3.75,8.83,5.85,14.14,5.85c0,0,0.01,0,0.01,0
		l164.69-0.12v473.35C875.72,801.68,864.04,813.36,849.68,813.36z"/>
</g>
</svg>
