<?xml version="1.0" encoding="utf-8"?>
<!-- Generator: Adobe Illustrator 24.0.1, SVG Export Plug-In . SVG Version: 6.00 Build 0)  -->
<svg version="1.1" id="图层_1" xmlns="http://www.w3.org/2000/svg" xmlns:xlink="http://www.w3.org/1999/xlink" x="0px" y="0px"
	 viewBox="0 0 1024 1024" style="enable-background:new 0 0 1024 1024;" xml:space="preserve">
<style type="text/css">
	.st0{fill:none;stroke:#000000;stroke-width:40;stroke-linecap:round;stroke-linejoin:round;stroke-miterlimit:10;}
	.st1{fill:none;stroke:#000000;stroke-width:40;stroke-linecap:round;stroke-miterlimit:10;}
	.st2{fill:none;stroke:#000000;stroke-width:40;stroke-miterlimit:10;}
</style>
<g>
	<path d="M157.3,913.88c0,38.8,31.57,70.37,70.37,70.37h558.4c38.8,0,70.37-31.57,70.37-70.37V114.62
		c0-38.8-31.57-70.37-70.37-70.37H379.41c-0.63,0-1.25,0.04-1.87,0.09c-0.09,0.01-0.18,0.01-0.27,0.02
		c-0.56,0.06-1.1,0.15-1.65,0.25c-0.15,0.03-0.29,0.06-0.44,0.09c-0.51,0.11-1.01,0.24-1.5,0.39c-0.17,0.05-0.33,0.1-0.49,0.16
		c-0.48,0.16-0.96,0.33-1.43,0.52c-0.14,0.06-0.28,0.12-0.42,0.18c-0.42,0.19-0.84,0.39-1.25,0.6c-0.1,0.05-0.2,0.1-0.3,0.15
		c-0.47,0.26-0.92,0.54-1.37,0.83c-0.11,0.07-0.21,0.14-0.32,0.21c-0.44,0.3-0.88,0.63-1.3,0.97c-0.09,0.07-0.17,0.14-0.26,0.22
		c-0.43,0.36-0.84,0.73-1.24,1.13c-0.04,0.04-0.09,0.09-0.13,0.14c-0.38,0.38-0.74,0.78-1.08,1.19c-0.05,0.06-0.11,0.12-0.16,0.19
		c-0.02,0.03-0.05,0.05-0.07,0.08L161.75,301.46c-0.33,0.41-0.64,0.83-0.93,1.25c-0.12,0.17-0.22,0.35-0.34,0.52
		c-0.24,0.37-0.47,0.74-0.69,1.13c-0.14,0.25-0.26,0.51-0.39,0.77c-0.14,0.28-0.28,0.56-0.41,0.84c-0.13,0.28-0.24,0.57-0.35,0.86
		c-0.11,0.28-0.21,0.55-0.31,0.84c-0.1,0.29-0.19,0.59-0.27,0.89c-0.09,0.3-0.16,0.61-0.23,0.91c-0.07,0.28-0.13,0.57-0.19,0.86
		c-0.07,0.36-0.12,0.73-0.17,1.09c-0.03,0.24-0.07,0.48-0.09,0.72c-0.06,0.6-0.09,1.2-0.09,1.8c0,0.02,0,0.05,0,0.07c0,0,0,0,0,0.01
		c0,0,0,0.01,0,0.01V913.88z M816.44,114.62v799.26c0,16.75-13.62,30.37-30.37,30.37h-558.4c-16.75,0-30.37-13.62-30.37-30.37
		V334.05l182.09,0.13c0,0,0.01,0,0.01,0c5.3,0,10.39-2.1,14.14-5.85c3.75-3.75,5.86-8.84,5.86-14.15V84.25h386.67
		C802.82,84.25,816.44,97.88,816.44,114.62z M219.19,294.07l140.22-173.3v173.4L219.19,294.07z"/>
	<path d="M376.13,423.62c-0.29,0.26-0.59,0.5-0.87,0.78c-0.59,0.59-1.12,1.22-1.63,1.86c-32.33,34.87-52.12,81.51-52.12,132.7
		c0,107.72,87.64,195.36,195.36,195.36c51,0,97.49-19.65,132.32-51.77c0.79-0.59,1.57-1.22,2.29-1.94c0.5-0.5,0.96-1.01,1.39-1.55
		c36.59-35.52,59.36-85.2,59.36-140.1c0-107.72-87.64-195.36-195.36-195.36C461.64,363.61,411.7,386.65,376.13,423.62z
		 M361.51,558.96c0-33.83,10.88-65.17,29.31-90.71l216.76,216.76c-25.54,18.43-56.88,29.31-90.71,29.31
		C431.21,714.32,361.51,644.63,361.51,558.96z M672.23,558.96c0,37.44-13.31,71.82-35.45,98.67L418.2,439.05
		c26.85-22.14,61.24-35.45,98.67-35.45C602.54,403.61,672.23,473.3,672.23,558.96z"/>
</g>
</svg>
