<?xml version="1.0" encoding="utf-8"?>
<!-- Generator: Adobe Illustrator 24.0.1, SVG Export Plug-In . SVG Version: 6.00 Build 0)  -->
<svg version="1.1" id="图层_1" xmlns="http://www.w3.org/2000/svg" xmlns:xlink="http://www.w3.org/1999/xlink" x="0px" y="0px"
	 viewBox="0 0 1024 1024" style="enable-background:new 0 0 1024 1024;" xml:space="preserve">
<style type="text/css">
	.st0{fill:none;stroke:#000000;stroke-width:40;stroke-linecap:round;stroke-linejoin:round;stroke-miterlimit:10;}
	.st1{fill:none;stroke:#000000;stroke-width:40;stroke-linecap:round;stroke-miterlimit:10;}
	.st2{fill:none;stroke:#000000;stroke-width:40;stroke-miterlimit:10;}
</style>
<g>
	<path d="M406.15,809.89h200.65c11.05,0,20-8.95,20-20s-8.95-20-20-20H406.15c-11.05,0-20,8.95-20,20S395.11,809.89,406.15,809.89z"
		/>
	<path d="M134.98,638.24h57.42c11.05,0,20-8.95,20-20s-8.95-20-20-20h-57.42c-17.23,0-31.24-14.02-31.24-31.25V263.34
		c0-17.23,14.02-31.24,31.24-31.24h743.01c17.23,0,31.24,14.02,31.24,31.24v303.65c0,17.23-14.02,31.25-31.24,31.25h-57.42
		c-11.05,0-20,8.95-20,20s8.95,20,20,20h57.42c39.28,0,71.24-31.96,71.24-71.25V263.34c0-39.28-31.96-71.24-71.24-71.24H747.45
		v-56.96c0-37.52-29.62-68.04-66.04-68.04H331.54c-36.41,0-66.04,30.52-66.04,68.04v56.96H134.98c-39.28,0-71.24,31.96-71.24,71.24
		v303.65C63.73,606.28,95.69,638.24,134.98,638.24z M305.51,135.14c0-15.46,11.68-28.04,26.04-28.04h349.87
		c14.36,0,26.04,12.58,26.04,28.04v56.96H305.51V135.14z"/>
	<path d="M259.79,481.66v426.62c0,26.92,22.81,48.82,50.85,48.82h391.67c28.04,0,50.85-21.9,50.85-48.82V481.66h-40v426.62
		c0,4.78-4.97,8.82-10.85,8.82H310.64c-5.88,0-10.85-4.04-10.85-8.82V481.66H259.79z"/>
	<path d="M406.15,636.37h200.65c11.05,0,20-8.95,20-20s-8.95-20-20-20H406.15c-11.05,0-20,8.95-20,20S395.11,636.37,406.15,636.37z"
		/>
	<path d="M819.51,461.53c0-11.05-8.95-20-20-20H213.45c-11.05,0-20,8.95-20,20s8.95,20,20,20h586.06
		C810.55,481.53,819.51,472.58,819.51,461.53z"/>
</g>
</svg>
