<?xml version="1.0" encoding="utf-8"?>
<!-- Generator: Adobe Illustrator 24.0.1, SVG Export Plug-In . SVG Version: 6.00 Build 0)  -->
<svg version="1.1" id="图层_1" xmlns="http://www.w3.org/2000/svg" xmlns:xlink="http://www.w3.org/1999/xlink" x="0px" y="0px"
	 viewBox="0 0 1024 1024" style="enable-background:new 0 0 1024 1024;" xml:space="preserve">
<style type="text/css">
	.st0{fill:none;stroke:#000000;stroke-width:40;stroke-linecap:round;stroke-linejoin:round;stroke-miterlimit:10;}
	.st1{fill:none;stroke:#000000;stroke-width:40;stroke-linecap:round;stroke-miterlimit:10;}
	.st2{fill:none;stroke:#000000;stroke-width:40;stroke-miterlimit:10;}
</style>
<g>
	<path d="M295.43,354.82c0,11.05,8.95,20,20,20h380.86c11.05,0,20-8.95,20-20s-8.95-20-20-20H315.43
		C304.38,334.82,295.43,343.78,295.43,354.82z"/>
	<path d="M696.28,514H315.43c-11.05,0-20,8.95-20,20s8.95,20,20,20h380.86c11.05,0,20-8.95,20-20S707.33,514,696.28,514z"/>
	<path d="M696.28,693.19H315.43c-11.05,0-20,8.95-20,20s8.95,20,20,20h380.86c11.05,0,20-8.95,20-20S707.33,693.19,696.28,693.19z"
		/>
	<path d="M343.05,42.82c-11.05,0-20,8.95-20,20v48.22H191.04c-38.6,0-70,31.4-70,70v731.78c0,38.6,31.4,70,70,70h629.63
		c38.6,0,70-31.4,70-70V181.04c0-38.6-31.4-70-70-70H688.66V62.82c0-11.05-8.95-20-20-20s-20,8.95-20,20v48.22h-285.6V62.82
		C363.05,51.77,354.1,42.82,343.05,42.82z M648.66,151.04v54.04c0,11.05,8.95,20,20,20s20-8.95,20-20v-54.04h132.01
		c16.54,0,30,13.46,30,30v731.78c0,16.54-13.46,30-30,30H191.04c-16.54,0-30-13.46-30-30V181.04c0-16.54,13.46-30,30-30h132.01
		v54.04c0,11.05,8.95,20,20,20s20-8.95,20-20v-54.04H648.66z"/>
</g>
</svg>
