<?xml version="1.0" encoding="utf-8"?>
<!-- Generator: Adobe Illustrator 24.0.1, SVG Export Plug-In . SVG Version: 6.00 Build 0)  -->
<svg version="1.1" id="图层_1" xmlns="http://www.w3.org/2000/svg" xmlns:xlink="http://www.w3.org/1999/xlink" x="0px" y="0px"
	 viewBox="0 0 1024 1024" style="enable-background:new 0 0 1024 1024;" xml:space="preserve">
<style type="text/css">
	.st0{fill:none;stroke:#000000;stroke-width:40;stroke-linecap:round;stroke-linejoin:round;stroke-miterlimit:10;}
	.st1{fill:none;stroke:#000000;stroke-width:40;stroke-linecap:round;stroke-miterlimit:10;}
	.st2{fill:none;stroke:#000000;stroke-width:40;stroke-miterlimit:10;}
</style>
<g>
	<path d="M856.05,114.62c0-38.8-31.57-70.37-70.37-70.37h-558.4c-38.8,0-70.37,31.57-70.37,70.37v799.26
		c0,38.8,31.57,70.37,70.37,70.37h406.67c0.63,0,1.25-0.04,1.87-0.09c0.09-0.01,0.18-0.01,0.27-0.02c0.56-0.06,1.11-0.15,1.65-0.25
		c0.15-0.03,0.29-0.06,0.44-0.09c0.51-0.11,1.01-0.24,1.5-0.39c0.16-0.05,0.33-0.1,0.49-0.16c0.48-0.16,0.96-0.33,1.43-0.52
		c0.14-0.06,0.27-0.12,0.41-0.18c0.43-0.19,0.85-0.39,1.26-0.61c0.09-0.05,0.19-0.1,0.29-0.15c0.47-0.26,0.93-0.54,1.38-0.84
		c0.1-0.07,0.21-0.14,0.31-0.21c0.45-0.31,0.88-0.63,1.3-0.97c0.09-0.07,0.17-0.14,0.26-0.21c0.43-0.36,0.85-0.73,1.25-1.13
		c0.04-0.04,0.09-0.09,0.13-0.14c0.38-0.38,0.74-0.78,1.08-1.19c0.05-0.06,0.11-0.12,0.16-0.19c0.02-0.03,0.05-0.05,0.07-0.08
		L851.6,727.04c0.33-0.41,0.64-0.83,0.93-1.26c0.12-0.17,0.22-0.34,0.33-0.51c0.24-0.37,0.48-0.75,0.69-1.13
		c0.14-0.25,0.26-0.51,0.39-0.77c0.14-0.28,0.28-0.56,0.41-0.85c0.12-0.28,0.23-0.57,0.35-0.86c0.11-0.28,0.21-0.56,0.31-0.84
		c0.1-0.29,0.19-0.59,0.27-0.89c0.09-0.3,0.16-0.61,0.23-0.91c0.07-0.28,0.13-0.57,0.19-0.86c0.07-0.36,0.12-0.73,0.17-1.1
		c0.03-0.24,0.07-0.48,0.09-0.72c0.06-0.6,0.09-1.2,0.09-1.8c0-0.02,0-0.05,0-0.07c0,0,0,0,0-0.01c0,0,0,0,0-0.01V114.62z
		 M196.91,913.88V114.62c0-16.75,13.62-30.37,30.37-30.37h558.4c16.75,0,30.37,13.62,30.37,30.37v579.83l-182.09-0.13
		c0,0-0.01,0-0.01,0c-5.3,0-10.39,2.11-14.14,5.85c-3.75,3.75-5.86,8.84-5.86,14.15v229.93H227.28
		C210.53,944.25,196.91,930.63,196.91,913.88z M794.17,734.44l-140.22,173.3v-173.4L794.17,734.44z"/>
	<path d="M299.02,298.41h414.93c11.05,0,20-8.95,20-20s-8.95-20-20-20H299.02c-11.05,0-20,8.95-20,20S287.97,298.41,299.02,298.41z"
		/>
	<path d="M633.94,506.61c11.05,0,20-8.95,20-20s-8.95-20-20-20H299.02c-11.05,0-20,8.95-20,20s8.95,20,20,20H633.94z"/>
</g>
</svg>
