<?xml version="1.0" encoding="utf-8"?>
<!-- Generator: Adobe Illustrator 24.0.1, SVG Export Plug-In . SVG Version: 6.00 Build 0)  -->
<svg version="1.1" id="图层_1" xmlns="http://www.w3.org/2000/svg" xmlns:xlink="http://www.w3.org/1999/xlink" x="0px" y="0px"
	 viewBox="0 0 1024 1024" style="enable-background:new 0 0 1024 1024;" xml:space="preserve">
<style type="text/css">
	.st0{fill:none;stroke:#000000;stroke-width:40;stroke-linecap:round;stroke-linejoin:round;stroke-miterlimit:10;}
	.st1{fill:none;stroke:#000000;stroke-width:40;stroke-linecap:round;stroke-miterlimit:10;}
	.st2{fill:none;stroke:#000000;stroke-width:40;stroke-miterlimit:10;}
</style>
<g>
	<path d="M908.67,262.7H715.42v-48.83c0-45.21-33.86-81.99-75.48-81.99H371.77c-41.62,0-75.48,36.78-75.48,81.99v48.83H103.04
		c-37.04,0-67.18,30.14-67.18,67.18v503.85c0,37.05,30.14,67.18,67.18,67.18h805.63c37.05,0,67.18-30.14,67.18-67.18V329.88
		C975.85,292.83,945.72,262.7,908.67,262.7z M336.29,213.87c0-22.76,16.25-41.99,35.48-41.99h268.16
		c19.23,0,35.48,19.23,35.48,41.99v48.83H336.29V213.87z M103.04,302.7h805.63c14.99,0,27.18,12.2,27.18,27.18v123.15H779.73v-49.74
		c0-11.05-8.95-20-20-20s-20,8.95-20,20v49.74H271.97v-49.74c0-11.05-8.95-20-20-20s-20,8.95-20,20v49.74H75.85V329.88
		C75.85,314.89,88.05,302.7,103.04,302.7z M908.67,860.91H103.04c-14.99,0-27.18-12.2-27.18-27.18v-340.7h156.12v39.25
		c0,11.05,8.95,20,20,20s20-8.95,20-20v-39.25h467.76v39.25c0,11.05,8.95,20,20,20s20-8.95,20-20v-39.25h156.12v340.7
		C935.85,848.72,923.66,860.91,908.67,860.91z"/>
</g>
</svg>
