<?xml version="1.0" encoding="utf-8"?>
<!-- Generator: Adobe Illustrator 24.0.1, SVG Export Plug-In . SVG Version: 6.00 Build 0)  -->
<svg version="1.1" id="图层_1" xmlns="http://www.w3.org/2000/svg" xmlns:xlink="http://www.w3.org/1999/xlink" x="0px" y="0px"
	 viewBox="0 0 1024 1024" style="enable-background:new 0 0 1024 1024;" xml:space="preserve">
<style type="text/css">
	.st0{fill:none;stroke:#000000;stroke-width:40;stroke-linecap:round;stroke-linejoin:round;stroke-miterlimit:10;}
	.st1{fill:none;stroke:#000000;stroke-width:40;stroke-linecap:round;stroke-miterlimit:10;}
	.st2{fill:none;stroke:#000000;stroke-width:40;stroke-miterlimit:10;}
</style>
<g>
	<path d="M238.57,44.25c-38.6,0-70,31.4-70,70v800c0,38.6,31.4,70,70,70h190.77c59.17,0,116.58-11.59,170.64-34.46
		c52.2-22.08,99.08-53.69,139.34-93.94c40.25-40.25,71.86-87.13,93.94-139.34c22.86-54.06,34.46-111.47,34.46-170.64V114.25
		c0-38.6-31.4-70-70-70H238.57z M827.72,114.25v431.62c0,219.67-178.71,398.38-398.38,398.38H238.57c-16.54,0-30-13.46-30-30v-800
		c0-16.54,13.46-30,30-30h559.14C814.26,84.25,827.72,97.71,827.72,114.25z"/>
	<path d="M725.61,258.41H310.68c-11.05,0-20,8.95-20,20s8.95,20,20,20h414.93c11.05,0,20-8.95,20-20S736.66,258.41,725.61,258.41z"
		/>
	<path d="M645.61,466.61H310.68c-11.05,0-20,8.95-20,20s8.95,20,20,20h334.93c11.05,0,20-8.95,20-20S656.66,466.61,645.61,466.61z"
		/>
	<path d="M545.61,674.82H310.68c-11.05,0-20,8.95-20,20s8.95,20,20,20h234.93c11.05,0,20-8.95,20-20S556.66,674.82,545.61,674.82z"
		/>
</g>
</svg>
