<?xml version="1.0" encoding="utf-8"?>
<!-- Generator: Adobe Illustrator 24.0.1, SVG Export Plug-In . SVG Version: 6.00 Build 0)  -->
<svg version="1.1" id="图层_1" xmlns="http://www.w3.org/2000/svg" xmlns:xlink="http://www.w3.org/1999/xlink" x="0px" y="0px"
	 viewBox="0 0 1024 1024" style="enable-background:new 0 0 1024 1024;" xml:space="preserve">
<style type="text/css">
	.st0{fill:none;stroke:#000000;stroke-width:40;stroke-linecap:round;stroke-linejoin:round;stroke-miterlimit:10;}
	.st1{fill:none;stroke:#000000;stroke-width:40;stroke-linecap:round;stroke-miterlimit:10;}
	.st2{fill:none;stroke:#000000;stroke-width:40;stroke-miterlimit:10;}
</style>
<g>
	<path d="M223.62,503.84h205.28c11.05,0,20-8.95,20-20V278.56c0-11.05-8.95-20-20-20H223.62c-11.05,0-20,8.95-20,20v205.28
		C203.62,494.88,212.57,503.84,223.62,503.84z M243.62,298.56h165.28v165.28H243.62V298.56z"/>
	<path d="M521.78,482.25h268.35c11.05,0,20-8.95,20-20s-8.95-20-20-20H521.78c-11.05,0-20,8.95-20,20S510.73,482.25,521.78,482.25z"
		/>
	<path d="M223.62,836.28h205.28c11.05,0,20-8.95,20-20V611.01c0-11.05-8.95-20-20-20H223.62c-11.05,0-20,8.95-20,20v205.28
		C203.62,827.33,212.57,836.28,223.62,836.28z M243.62,631.01h165.28v165.28H243.62V631.01z"/>
	<path d="M521.78,652.59h268.35c11.05,0,20-8.95,20-20s-8.95-20-20-20H521.78c-11.05,0-20,8.95-20,20S510.73,652.59,521.78,652.59z"
		/>
	<path d="M521.78,814.7h268.35c11.05,0,20-8.95,20-20s-8.95-20-20-20H521.78c-11.05,0-20,8.95-20,20S510.73,814.7,521.78,814.7z"/>
	<path d="M175.16,982.1h663.43c38.6,0,70-31.4,70-70V341.2c0-4.96-1.84-9.74-5.17-13.42L650.78,48.68c-0.1-0.11-0.22-0.21-0.32-0.32
		c-0.27-0.28-0.54-0.55-0.82-0.82c-0.21-0.2-0.42-0.39-0.64-0.58c-0.3-0.26-0.6-0.5-0.92-0.74c-0.22-0.17-0.43-0.33-0.66-0.49
		c-0.35-0.24-0.71-0.47-1.07-0.69c-0.2-0.12-0.4-0.25-0.61-0.37c-0.42-0.23-0.85-0.44-1.28-0.65c-0.17-0.08-0.33-0.17-0.51-0.24
		c-0.49-0.22-1-0.4-1.52-0.58c-0.12-0.04-0.25-0.1-0.37-0.14c-0.56-0.18-1.14-0.33-1.72-0.46c-0.09-0.02-0.17-0.05-0.26-0.07
		c-0.59-0.13-1.2-0.22-1.81-0.29c-0.08-0.01-0.16-0.03-0.24-0.04c-0.69-0.07-1.38-0.11-2.09-0.11h-460.8c-38.6,0-70,31.4-70,70v800
		C105.16,950.7,136.56,982.1,175.16,982.1z M655.95,114l190.09,210.01H655.95V114z M145.16,112.1c0-16.54,13.46-30,30-30h440.8
		v261.9c0,11.05,8.95,20,20,20h232.63v548.1c0,16.54-13.46,30-30,30H175.16c-16.54,0-30-13.46-30-30V112.1z"/>
</g>
</svg>
