<?xml version="1.0" encoding="utf-8"?>
<!-- Generator: Adobe Illustrator 24.0.1, SVG Export Plug-In . SVG Version: 6.00 Build 0)  -->
<svg version="1.1" id="图层_1" xmlns="http://www.w3.org/2000/svg" xmlns:xlink="http://www.w3.org/1999/xlink" x="0px" y="0px"
	 viewBox="0 0 1024 1024" style="enable-background:new 0 0 1024 1024;" xml:space="preserve">
<style type="text/css">
	.st0{fill:none;stroke:#000000;stroke-width:40;stroke-linecap:round;stroke-linejoin:round;stroke-miterlimit:10;}
	.st1{fill:none;stroke:#000000;stroke-width:40;stroke-linecap:round;stroke-miterlimit:10;}
	.st2{fill:none;stroke:#000000;stroke-width:40;stroke-miterlimit:10;}
</style>
<g>
	<path d="M45.17,359.07c0,25.96,13.17,49.61,35.24,63.28l386.87,239.66h0c12.09,7.49,25.65,11.23,39.2,11.23s27.11-3.74,39.2-11.23
		l386.87-239.66c22.07-13.67,35.24-37.33,35.24-63.28s-13.17-49.61-35.24-63.28L545.68,56.13c-24.18-14.98-54.23-14.98-78.41,0
		L80.41,295.79C58.34,309.46,45.17,333.11,45.17,359.07z M101.47,329.79L488.34,90.13c11.19-6.93,25.09-6.93,36.28,0l386.87,239.66
		c10.36,6.42,16.3,17.09,16.3,29.28c0,12.19-5.94,22.86-16.3,29.28L524.62,628.01c-11.19,6.93-25.09,6.93-36.28,0h0L101.47,388.35
		c-10.36-6.42-16.3-17.09-16.3-29.28C85.17,346.88,91.11,336.21,101.47,329.79z"/>
	<path d="M50.83,557.53L469.9,817.14c11.28,6.99,23.93,10.48,36.58,10.48s25.3-3.49,36.58-10.48l419.07-259.61
		c9.39-5.82,12.29-18.14,6.47-27.53c-5.82-9.39-18.14-12.29-27.53-6.47L521.99,783.13c-9.57,5.93-21.46,5.93-31.03,0L71.89,523.53
		c-9.39-5.82-21.72-2.92-27.53,6.47S41.44,551.71,50.83,557.53z"/>
	<path d="M50.83,714.95L469.9,974.55c11.28,6.99,23.93,10.48,36.58,10.48s25.3-3.49,36.58-10.48l419.07-259.61
		c9.39-5.82,12.29-18.14,6.47-27.53c-5.82-9.39-18.14-12.29-27.53-6.47L521.99,940.55c-9.57,5.93-21.46,5.93-31.03,0L71.89,680.94
		c-9.39-5.82-21.72-2.92-27.53,6.47S41.44,709.13,50.83,714.95z"/>
</g>
</svg>
