<?xml version="1.0" encoding="utf-8"?>
<!-- Generator: Adobe Illustrator 24.0.1, SVG Export Plug-In . SVG Version: 6.00 Build 0)  -->
<svg version="1.1" id="图层_1" xmlns="http://www.w3.org/2000/svg" xmlns:xlink="http://www.w3.org/1999/xlink" x="0px" y="0px"
	 viewBox="0 0 1024 1024" style="enable-background:new 0 0 1024 1024;" xml:space="preserve">
<style type="text/css">
	.st0{fill:none;stroke:#000000;stroke-width:40;stroke-linecap:round;stroke-linejoin:round;stroke-miterlimit:10;}
	.st1{fill:none;stroke:#000000;stroke-width:40;stroke-linecap:round;stroke-miterlimit:10;}
	.st2{fill:none;stroke:#000000;stroke-width:40;stroke-miterlimit:10;}
</style>
<g>
	<path d="M115.33,887.48h805.63c37.05,0,67.18-30.14,67.18-67.18V316.45c0-37.05-30.14-67.18-67.18-67.18H715.72v-37.71
		c0-39.69-32.29-71.97-71.97-71.97h-251.2c-39.69,0-71.97,32.29-71.97,71.97v37.71H115.33c-37.04,0-67.18,30.14-67.18,67.18V820.3
		C48.15,857.35,78.29,887.48,115.33,887.48z M920.96,847.48H115.33c-14.99,0-27.18-12.19-27.18-27.18V479.6h358.03v31.97
		c0,39.69,32.29,71.97,71.97,71.97c39.69,0,71.97-32.29,71.97-71.97V479.6h358.03v340.7C948.15,835.29,935.95,847.48,920.96,847.48z
		 M550.12,479.6v31.97c0,17.63-14.34,31.97-31.97,31.97c-17.63,0-31.97-14.34-31.97-31.97V479.6H550.12z M360.57,211.56
		c0-17.63,14.34-31.97,31.97-31.97h251.2c17.63,0,31.97,14.34,31.97,31.97v37.71H360.57V211.56z M115.33,289.27h805.63
		c14.99,0,27.18,12.19,27.18,27.18V439.6h-860V316.45C88.15,301.46,100.34,289.27,115.33,289.27z"/>
</g>
</svg>
