<?xml version="1.0" encoding="utf-8"?>
<!-- Generator: Adobe Illustrator 24.0.1, SVG Export Plug-In . SVG Version: 6.00 Build 0)  -->
<svg version="1.1" id="图层_1" xmlns="http://www.w3.org/2000/svg" xmlns:xlink="http://www.w3.org/1999/xlink" x="0px" y="0px"
	 viewBox="0 0 1024 1024" style="enable-background:new 0 0 1024 1024;" xml:space="preserve">
<style type="text/css">
	.st0{fill:none;stroke:#000000;stroke-width:40;stroke-linecap:round;stroke-linejoin:round;stroke-miterlimit:10;}
	.st1{fill:none;stroke:#000000;stroke-width:40;stroke-linecap:round;stroke-miterlimit:10;}
	.st2{fill:none;stroke:#000000;stroke-width:40;stroke-miterlimit:10;}
</style>
<g>
	<path d="M113.05,788.12h674.48c39.67,0,71.95-30.43,71.95-67.84V284.47c0-37.41-32.28-67.84-71.95-67.84H484.47l-9.61-34.81
		c-8.21-29.75-41.29-53.05-75.3-53.05H106.53c-36.08,0-65.43,26.19-65.43,58.38v83.47c0,1.53,0.06,3.06,0.19,4.63
		c-0.1,0.88-0.19,1.98-0.19,3.21v441.82C41.1,757.69,73.38,788.12,113.05,788.12z M787.53,748.12H113.05
		c-17.32,0-31.95-12.75-31.95-27.84V391.91h738.38v328.38C819.48,735.38,804.85,748.12,787.53,748.12z M81.27,273.07
		c-0.11-0.92-0.17-1.72-0.17-2.45v-83.47c0-9.96,11.65-18.38,25.43-18.38h293.03c16.09,0,33.26,11.07,36.74,23.7l12.41,44.96
		c3.12,11.31,13.65,19.2,25.6,19.2h313.22c17.32,0,31.95,12.75,31.95,27.84v67.44H81.1v-72.53c0.08-0.57,0.19-1.37,0.26-2.3
		l0.15-2.01L81.27,273.07z"/>
	<path d="M938.07,441.49v396.18c0,12.73-12.47,23.49-27.22,23.49H297.7c-11.05,0-20,8.95-20,20s8.95,20,20,20h613.15
		c37.07,0,67.22-28.48,67.22-63.49V441.49c0-11.05-8.95-20-20-20C947.03,421.49,938.07,430.45,938.07,441.49z"/>
</g>
</svg>
