<?xml version="1.0" encoding="utf-8"?>
<!-- Generator: Adobe Illustrator 24.0.1, SVG Export Plug-In . SVG Version: 6.00 Build 0)  -->
<svg version="1.1" id="图层_1" xmlns="http://www.w3.org/2000/svg" xmlns:xlink="http://www.w3.org/1999/xlink" x="0px" y="0px"
	 viewBox="0 0 1024 1024" style="enable-background:new 0 0 1024 1024;" xml:space="preserve">
<style type="text/css">
	.st0{fill:none;stroke:#000000;stroke-width:40;stroke-linecap:round;stroke-linejoin:round;stroke-miterlimit:10;}
	.st1{fill:none;stroke:#000000;stroke-width:40;stroke-linecap:round;stroke-miterlimit:10;}
	.st2{fill:none;stroke:#000000;stroke-width:40;stroke-miterlimit:10;}
</style>
<g>
	<path d="M170.89,982.1h674.37c38.6,0,70-31.4,70-70v-800c0-38.6-31.4-70-70-70H170.89c-38.6,0-70,31.4-70,70v800
		C100.89,950.7,132.29,982.1,170.89,982.1z M140.89,112.1c0-16.54,13.46-30,30-30h674.37c16.54,0,30,13.46,30,30v800
		c0,16.54-13.46,30-30,30H170.89c-16.54,0-30-13.46-30-30V112.1z"/>
	<path d="M306.57,364.01c48.32,0,87.62-39.31,87.62-87.62s-39.31-87.62-87.62-87.62s-87.62,39.31-87.62,87.62
		S258.25,364.01,306.57,364.01z M306.57,228.76c26.26,0,47.62,21.36,47.62,47.62s-21.36,47.62-47.62,47.62s-47.62-21.36-47.62-47.62
		S280.31,228.76,306.57,228.76z"/>
	<path d="M483.46,296.38H777.2c11.05,0,20-8.95,20-20s-8.95-20-20-20H483.46c-11.05,0-20,8.95-20,20S472.41,296.38,483.46,296.38z"
		/>
	<path d="M483.46,539.13H777.2c11.05,0,20-8.95,20-20s-8.95-20-20-20H483.46c-11.05,0-20,8.95-20,20S472.41,539.13,483.46,539.13z"
		/>
	<path d="M262.5,504.98c-7.81-7.81-20.47-7.81-28.28,0s-7.81,20.47,0,28.28l57.02,57.02c3.75,3.75,8.84,5.86,14.14,5.86
		s10.39-2.11,14.14-5.86l120.95-120.95c7.81-7.81,7.81-20.47,0-28.28s-20.47-7.81-28.28,0l-106.8,106.8L262.5,504.98z"/>
	<path d="M483.46,778.42H777.2c11.05,0,20-8.95,20-20s-8.95-20-20-20H483.46c-11.05,0-20,8.95-20,20S472.41,778.42,483.46,778.42z"
		/>
	<path d="M412.19,680.36l-106.8,106.8l-42.88-42.88c-7.81-7.81-20.47-7.81-28.28,0s-7.81,20.47,0,28.28l57.02,57.02
		c3.75,3.75,8.84,5.86,14.14,5.86s10.39-2.11,14.14-5.86l120.95-120.95c7.81-7.81,7.81-20.47,0-28.28S420,672.55,412.19,680.36z"/>
</g>
</svg>
