<?xml version="1.0" encoding="utf-8"?>
<!-- Generator: Adobe Illustrator 24.0.1, SVG Export Plug-In . SVG Version: 6.00 Build 0)  -->
<svg version="1.1" id="图层_1" xmlns="http://www.w3.org/2000/svg" xmlns:xlink="http://www.w3.org/1999/xlink" x="0px" y="0px"
	 viewBox="0 0 1024 1024" style="enable-background:new 0 0 1024 1024;" xml:space="preserve">
<style type="text/css">
	.st0{fill:none;stroke:#000000;stroke-width:40;stroke-linecap:round;stroke-linejoin:round;stroke-miterlimit:10;}
	.st1{fill:none;stroke:#000000;stroke-width:40;stroke-linecap:round;stroke-miterlimit:10;}
	.st2{fill:none;stroke:#000000;stroke-width:40;stroke-miterlimit:10;}
</style>
<g>
	<path d="M314.16,371.51h383.38c11.05,0,20-8.95,20-20s-8.95-20-20-20H314.16c-11.05,0-20,8.95-20,20S303.12,371.51,314.16,371.51z"
		/>
	<path d="M314.16,551.88h383.38c11.05,0,20-8.95,20-20s-8.95-20-20-20H314.16c-11.05,0-20,8.95-20,20S303.12,551.88,314.16,551.88z"
		/>
	<path d="M314.16,732.25h383.38c11.05,0,20-8.95,20-20s-8.95-20-20-20H314.16c-11.05,0-20,8.95-20,20S303.12,732.25,314.16,732.25z"
		/>
	<path d="M118.62,913.2c0,38.78,31.55,70.33,70.33,70.33h633.8c38.78,0,70.33-31.55,70.33-70.33V176.57
		c0-38.78-31.55-70.33-70.33-70.33H687.59c-0.99-34.74-29.54-62.71-64.52-62.71H388.64c-34.98,0-63.53,27.96-64.52,62.71H188.95
		c-38.78,0-70.33,31.55-70.33,70.33V913.2z M364.07,108.1c0-13.55,11.02-24.57,24.57-24.57h234.42c13.55,0,24.57,11.02,24.57,24.57
		v18.14v11.8c0,2.54-0.39,4.99-1.11,7.3c-3.12,10-12.46,17.27-23.46,17.27H388.64c-13.55,0-24.57-11.02-24.57-24.57v-11.8V108.1z
		 M158.62,176.57c0-16.72,13.61-30.33,30.33-30.33h135.64c0.04,0.3,0.09,0.59,0.13,0.88c0.06,0.45,0.13,0.9,0.2,1.35
		c0.09,0.58,0.2,1.16,0.31,1.73c0.08,0.44,0.17,0.89,0.26,1.33c0.12,0.58,0.26,1.15,0.4,1.72c0.1,0.43,0.21,0.86,0.32,1.29
		c0.15,0.58,0.32,1.16,0.49,1.73c0.12,0.4,0.23,0.81,0.36,1.21c0.19,0.61,0.4,1.2,0.61,1.8c0.13,0.36,0.24,0.73,0.38,1.08
		c0.26,0.72,0.55,1.42,0.84,2.13c0.09,0.23,0.18,0.47,0.28,0.7c0.39,0.92,0.81,1.84,1.24,2.74c0.14,0.28,0.29,0.56,0.43,0.84
		c0.31,0.62,0.62,1.23,0.94,1.84c0.19,0.36,0.4,0.7,0.6,1.05c0.29,0.52,0.59,1.04,0.89,1.55c0.22,0.37,0.46,0.73,0.69,1.1
		c0.3,0.48,0.6,0.96,0.92,1.43c0.25,0.37,0.5,0.74,0.76,1.1c0.32,0.45,0.63,0.9,0.96,1.35c0.27,0.37,0.54,0.73,0.82,1.08
		c0.33,0.43,0.67,0.86,1.01,1.29c0.29,0.35,0.58,0.7,0.87,1.05c0.35,0.42,0.71,0.83,1.07,1.23c0.3,0.34,0.6,0.68,0.91,1.01
		c0.37,0.4,0.75,0.8,1.13,1.19c0.31,0.32,0.63,0.64,0.95,0.96c0.4,0.39,0.8,0.77,1.21,1.15c0.32,0.3,0.64,0.6,0.97,0.9
		c0.43,0.38,0.86,0.76,1.3,1.13c0.32,0.27,0.64,0.55,0.96,0.82c0.48,0.39,0.97,0.77,1.45,1.14c0.3,0.23,0.59,0.47,0.9,0.7
		c0.64,0.48,1.29,0.94,1.95,1.39c0.16,0.11,0.32,0.23,0.48,0.34c0.82,0.56,1.66,1.09,2.51,1.61c0.29,0.17,0.58,0.34,0.87,0.51
		c0.57,0.34,1.15,0.68,1.73,1c0.35,0.19,0.71,0.37,1.07,0.56c0.53,0.28,1.06,0.56,1.61,0.82c0.38,0.19,0.78,0.36,1.17,0.55
		c0.52,0.24,1.05,0.49,1.58,0.72c0.41,0.18,0.82,0.34,1.23,0.51c0.53,0.21,1.05,0.43,1.59,0.63c0.42,0.16,0.85,0.31,1.27,0.46
		c0.53,0.19,1.07,0.37,1.61,0.55c0.43,0.14,0.86,0.27,1.3,0.4c0.55,0.16,1.1,0.32,1.65,0.47c0.44,0.12,0.88,0.24,1.32,0.34
		c0.56,0.14,1.13,0.27,1.7,0.39c0.44,0.1,0.88,0.19,1.32,0.28c0.59,0.12,1.18,0.22,1.77,0.32c0.43,0.07,0.86,0.15,1.3,0.21
		c0.62,0.09,1.25,0.17,1.88,0.24c0.41,0.05,0.82,0.1,1.24,0.15c0.7,0.07,1.4,0.11,2.11,0.16c0.35,0.02,0.7,0.06,1.05,0.07
		c1.06,0.05,2.12,0.08,3.19,0.08h234.42c1.07,0,2.14-0.03,3.19-0.08c0.35-0.02,0.7-0.05,1.05-0.07c0.7-0.05,1.41-0.09,2.11-0.16
		c0.41-0.04,0.82-0.1,1.24-0.15c0.63-0.07,1.26-0.15,1.88-0.24c0.44-0.06,0.87-0.14,1.3-0.21c0.59-0.1,1.18-0.2,1.77-0.32
		c0.44-0.09,0.88-0.18,1.32-0.28c0.57-0.12,1.14-0.25,1.7-0.39c0.44-0.11,0.88-0.23,1.32-0.34c0.55-0.15,1.1-0.31,1.65-0.47
		c0.43-0.13,0.87-0.26,1.3-0.4c0.54-0.17,1.08-0.36,1.61-0.55c0.43-0.15,0.85-0.3,1.27-0.46c0.53-0.2,1.06-0.41,1.59-0.63
		c0.41-0.17,0.82-0.33,1.23-0.51c0.53-0.23,1.06-0.47,1.58-0.72c0.39-0.18,0.78-0.36,1.17-0.55c0.54-0.26,1.07-0.54,1.61-0.82
		c0.36-0.19,0.72-0.37,1.07-0.56c0.58-0.32,1.16-0.66,1.73-1c0.29-0.17,0.58-0.33,0.87-0.51c0.85-0.52,1.68-1.05,2.51-1.61
		c0.16-0.11,0.32-0.23,0.48-0.34c0.66-0.45,1.31-0.91,1.95-1.39c0.3-0.23,0.6-0.47,0.9-0.7c0.49-0.38,0.98-0.75,1.45-1.14
		c0.33-0.27,0.64-0.55,0.96-0.82c0.44-0.37,0.87-0.74,1.3-1.13c0.33-0.29,0.65-0.6,0.97-0.9c0.41-0.38,0.81-0.76,1.21-1.15
		c0.32-0.32,0.63-0.64,0.95-0.96c0.38-0.39,0.76-0.79,1.13-1.19c0.31-0.33,0.61-0.67,0.91-1.01c0.36-0.41,0.72-0.82,1.07-1.23
		c0.29-0.35,0.58-0.7,0.87-1.05c0.34-0.42,0.68-0.85,1.01-1.29c0.28-0.36,0.55-0.72,0.82-1.08c0.33-0.44,0.64-0.89,0.96-1.35
		c0.26-0.37,0.51-0.73,0.76-1.1c0.31-0.47,0.62-0.95,0.92-1.43c0.23-0.37,0.47-0.73,0.69-1.1c0.31-0.51,0.6-1.03,0.89-1.55
		c0.2-0.35,0.4-0.7,0.6-1.05c0.33-0.61,0.64-1.22,0.94-1.84c0.14-0.28,0.29-0.56,0.43-0.84c0.43-0.9,0.85-1.81,1.24-2.74
		c0.1-0.23,0.18-0.46,0.28-0.7c0.29-0.7,0.57-1.41,0.84-2.13c0.13-0.36,0.25-0.72,0.38-1.09c0.21-0.6,0.42-1.19,0.61-1.8
		c0.13-0.4,0.24-0.81,0.36-1.22c0.17-0.57,0.34-1.15,0.49-1.73c0.11-0.43,0.21-0.86,0.32-1.29c0.14-0.57,0.27-1.14,0.4-1.72
		c0.09-0.44,0.18-0.88,0.26-1.33c0.11-0.58,0.22-1.15,0.31-1.73c0.07-0.45,0.14-0.9,0.2-1.35c0.04-0.3,0.1-0.59,0.13-0.88h135.64
		c16.73,0,30.33,13.61,30.33,30.33V913.2c0,16.72-13.61,30.33-30.33,30.33h-633.8c-16.73,0-30.33-13.61-30.33-30.33V176.57z"/>
</g>
</svg>
