<?xml version="1.0" encoding="utf-8"?>
<!-- Generator: Adobe Illustrator 24.0.1, SVG Export Plug-In . SVG Version: 6.00 Build 0)  -->
<svg version="1.1" id="图层_1" xmlns="http://www.w3.org/2000/svg" xmlns:xlink="http://www.w3.org/1999/xlink" x="0px" y="0px"
	 viewBox="0 0 1024 1024" style="enable-background:new 0 0 1024 1024;" xml:space="preserve">
<style type="text/css">
	.st0{fill:none;stroke:#000000;stroke-width:40;stroke-linecap:round;stroke-linejoin:round;stroke-miterlimit:10;}
	.st1{fill:none;stroke:#000000;stroke-width:40;stroke-linecap:round;stroke-miterlimit:10;}
	.st2{fill:none;stroke:#000000;stroke-width:40;stroke-miterlimit:10;}
</style>
<g>
	<path d="M887.33,159.55H545.24c-23.92,0-46.4,9.31-63.31,26.22L344.04,323.66H106.9c-22.53,0-43.1,10.42-56.43,28.58
		c-13.33,18.16-17.1,40.91-10.35,62.4L168.4,822.81c9.21,29.31,36.05,49.01,66.77,49.01h721.7c0.61,0,1.22-0.04,1.83-0.09
		c0.12-0.01,0.23-0.02,0.35-0.03c0.55-0.06,1.1-0.14,1.64-0.25c0.16-0.03,0.32-0.07,0.48-0.1c0.52-0.11,1.03-0.24,1.54-0.39
		c0.14-0.04,0.28-0.1,0.43-0.14c0.41-0.14,0.82-0.28,1.22-0.45c0.15-0.06,0.3-0.12,0.45-0.18c0.47-0.2,0.93-0.43,1.39-0.67
		c0.15-0.08,0.29-0.16,0.44-0.24c0.46-0.26,0.92-0.53,1.36-0.83c0.08-0.06,0.16-0.11,0.24-0.17c0.42-0.29,0.82-0.59,1.22-0.91
		c0.07-0.06,0.15-0.12,0.22-0.18c0.43-0.36,0.84-0.73,1.24-1.12c0.08-0.08,0.16-0.16,0.24-0.24c0.4-0.4,0.78-0.82,1.14-1.26
		c0.03-0.04,0.06-0.07,0.09-0.11c0.21-0.26,0.42-0.53,0.63-0.8c0.11-0.15,0.21-0.3,0.31-0.45c0.08-0.12,0.16-0.23,0.24-0.35
		c0.29-0.44,0.57-0.89,0.82-1.35c0.08-0.14,0.15-0.28,0.22-0.43c0.21-0.4,0.41-0.81,0.59-1.22c0.06-0.15,0.13-0.29,0.19-0.44
		c0.18-0.44,0.34-0.9,0.49-1.35c0.06-0.17,0.11-0.34,0.17-0.52c0.15-0.5,0.28-1,0.39-1.5c0.03-0.15,0.06-0.31,0.09-0.47
		c0.11-0.55,0.2-1.11,0.25-1.66c0.01-0.06,0.01-0.12,0.01-0.18c0.06-0.58,0.08-1.17,0.09-1.76c0-0.05,0.01-0.1,0.01-0.15V249.08
		C976.87,199.71,936.71,159.55,887.33,159.55z M510.21,214.06c9.36-9.36,21.8-14.51,35.03-14.51h342.09
		c27.32,0,49.54,22.22,49.54,49.54v472.38l-109.61-348.8c-9.21-29.31-36.05-49.01-66.77-49.01H400.61L510.21,214.06z M235.17,831.82
		c-13.17,0-24.67-8.44-28.61-21L78.29,402.64c-2.89-9.21-1.28-18.96,4.43-26.74c5.71-7.78,14.53-12.25,24.18-12.25h245.41
		c0.01,0,0.01,0,0.02,0h408.15c13.17,0,24.67,8.44,28.61,21l140.52,447.16H235.17z"/>
	<path d="M583.59,577.74H370.16c-11.05,0-20,8.95-20,20s8.95,20,20,20h213.43c11.05,0,20-8.95,20-20S594.63,577.74,583.59,577.74z"
		/>
</g>
</svg>
