<?xml version="1.0" encoding="utf-8"?>
<!-- Generator: Adobe Illustrator 24.0.1, SVG Export Plug-In . SVG Version: 6.00 Build 0)  -->
<svg version="1.1" id="图层_1" xmlns="http://www.w3.org/2000/svg" xmlns:xlink="http://www.w3.org/1999/xlink" x="0px" y="0px"
	 viewBox="0 0 1024 1024" style="enable-background:new 0 0 1024 1024;" xml:space="preserve">
<style type="text/css">
	.st0{fill:none;stroke:#000000;stroke-width:40;stroke-linecap:round;stroke-linejoin:round;stroke-miterlimit:10;}
	.st1{fill:none;stroke:#000000;stroke-width:40;stroke-linecap:round;stroke-miterlimit:10;}
	.st2{fill:none;stroke:#000000;stroke-width:40;stroke-miterlimit:10;}
</style>
<g>
	<path d="M906.87,319.03h-800c-38.6,0-70,31.4-70,70v492.65c0,38.6,31.4,70,70,70h800c38.6,0,70-31.4,70-70V389.03
		C976.87,350.43,945.47,319.03,906.87,319.03z M936.87,881.68c0,16.54-13.46,30-30,30h-800c-16.54,0-30-13.46-30-30V389.03
		c0-16.54,13.46-30,30-30h800c16.54,0,30,13.46,30,30V881.68z"/>
	<path d="M114.46,259.54c0,11.05,8.95,20,20,20h744.83c11.05,0,20-8.95,20-20s-8.95-20-20-20H134.46
		C123.41,239.54,114.46,248.49,114.46,259.54z"/>
	<path d="M188.69,180.32c0,11.05,8.95,20,20,20h596.36c11.05,0,20-8.95,20-20s-8.95-20-20-20H208.69
		C197.65,160.32,188.69,169.28,188.69,180.32z"/>
	<path d="M739.48,121.11c11.05,0,20-8.95,20-20s-8.95-20-20-20H274.26c-11.05,0-20,8.95-20,20s8.95,20,20,20H739.48z"/>
</g>
</svg>
