<?xml version="1.0" encoding="utf-8"?>
<!-- Generator: Adobe Illustrator 24.0.1, SVG Export Plug-In . SVG Version: 6.00 Build 0)  -->
<svg version="1.1" id="图层_1" xmlns="http://www.w3.org/2000/svg" xmlns:xlink="http://www.w3.org/1999/xlink" x="0px" y="0px"
	 viewBox="0 0 1024 1024" style="enable-background:new 0 0 1024 1024;" xml:space="preserve">
<style type="text/css">
	.st0{fill:none;stroke:#000000;stroke-width:40;stroke-linecap:round;stroke-linejoin:round;stroke-miterlimit:10;}
	.st1{fill:none;stroke:#000000;stroke-width:40;stroke-linecap:round;stroke-miterlimit:10;}
	.st2{fill:none;stroke:#000000;stroke-width:40;stroke-miterlimit:10;}
</style>
<g>
	<path d="M322.04,984.97h495.14c35.44,0,64.28-28.83,64.28-64.28V212.27c0-35.44-28.83-64.28-64.28-64.28h-63.24v-33.02
		c0-38.6-31.4-70-70-70H200.25c-38.6,0-70,31.4-70,70v696.98c0,38.6,31.4,70,70,70h57.52v38.75
		C257.77,956.13,286.6,984.97,322.04,984.97z M817.18,187.99c13.39,0,24.28,10.89,24.28,24.28v708.42
		c0,13.39-10.89,24.28-24.28,24.28H322.04c-13.39,0-24.28-10.89-24.28-24.28v-38.75h386.17c38.6,0,70-31.4,70-70V187.99H817.18z
		 M170.25,811.94V114.97c0-16.54,13.46-30,30-30h483.69c16.54,0,30,13.46,30,30v696.98c0,16.54-13.46,30-30,30H200.25
		C183.71,841.94,170.25,828.49,170.25,811.94z"/>
</g>
</svg>
