<?xml version="1.0" encoding="utf-8"?>
<!-- Generator: Adobe Illustrator 24.0.1, SVG Export Plug-In . SVG Version: 6.00 Build 0)  -->
<svg version="1.1" id="图层_1" xmlns="http://www.w3.org/2000/svg" xmlns:xlink="http://www.w3.org/1999/xlink" x="0px" y="0px"
	 viewBox="0 0 1024 1024" style="enable-background:new 0 0 1024 1024;" xml:space="preserve">
<style type="text/css">
	.st0{fill:none;stroke:#000000;stroke-width:40;stroke-linecap:round;stroke-linejoin:round;stroke-miterlimit:10;}
	.st1{fill:none;stroke:#000000;stroke-width:40;stroke-linecap:round;stroke-miterlimit:10;}
	.st2{fill:none;stroke:#000000;stroke-width:40;stroke-miterlimit:10;}
</style>
<g>
	<path d="M121.39,890.21h776.85c44.02,0,79.83-33.69,79.83-75.1V313.15c0-41.41-35.81-75.1-79.83-75.1H546.87l-11.68-42.32
		c-9.11-33.02-45.92-58.88-83.8-58.88h-337.5c-18.66,0-36.35,6.24-49.83,17.56c-14.51,12.2-22.5,28.76-22.5,46.64v96.14
		c0,1.77,0.08,3.55,0.24,5.39c-0.12,0.98-0.24,2.22-0.24,3.65v508.87C41.56,856.52,77.37,890.21,121.39,890.21z M898.24,850.21
		H121.39c-21.96,0-39.83-15.75-39.83-35.1V433.86h856.51v381.25C938.07,834.46,920.2,850.21,898.24,850.21z M81.78,300.4
		c-0.15-1.18-0.22-2.23-0.22-3.19v-96.14c0-13.12,14.8-24.2,32.33-24.2h337.5c19.76,0,40.91,13.79,45.24,29.52l14.29,51.79
		c3.23,11.71,14.15,19.89,26.55,19.89h360.76c21.96,0,39.83,15.75,39.83,35.1v80.71H81.56v-86.8c0.1-0.65,0.23-1.56,0.31-2.65
		l0.16-2.01L81.78,300.4z"/>
</g>
</svg>
