<?xml version="1.0" encoding="utf-8"?>
<!-- Generator: Adobe Illustrator 24.0.1, SVG Export Plug-In . SVG Version: 6.00 Build 0)  -->
<svg version="1.1" id="图层_1" xmlns="http://www.w3.org/2000/svg" xmlns:xlink="http://www.w3.org/1999/xlink" x="0px" y="0px"
	 viewBox="0 0 1024 1024" style="enable-background:new 0 0 1024 1024;" xml:space="preserve">
<style type="text/css">
	.st0{fill:none;stroke:#000000;stroke-width:40;stroke-linecap:round;stroke-linejoin:round;stroke-miterlimit:10;}
	.st1{fill:none;stroke:#000000;stroke-width:40;stroke-linecap:round;stroke-miterlimit:10;}
	.st2{fill:none;stroke:#000000;stroke-width:40;stroke-miterlimit:10;}
</style>
<g>
	<path d="M60.85,140.68v750c0,38.6,31.4,70,70,70h750c38.6,0,70-31.4,70-70v-750c0-38.6-31.4-70-70-70h-750
		C92.26,70.68,60.85,102.08,60.85,140.68z M880.85,920.68h-750c-16.54,0-30-13.46-30-30V349.31h810v541.37
		C910.85,907.22,897.4,920.68,880.85,920.68z M130.85,110.68h750c16.54,0,30,13.46,30,30v168.63h-810V140.68
		C100.85,124.14,114.31,110.68,130.85,110.68z"/>
	<path d="M620.07,410.38H391.64c-11.05,0-20,8.95-20,20s8.95,20,20,20h228.43c11.05,0,20-8.95,20-20S631.12,410.38,620.07,410.38z"
		/>
</g>
</svg>
