<?xml version="1.0" encoding="utf-8"?>
<!-- Generator: Adobe Illustrator 24.0.1, SVG Export Plug-In . SVG Version: 6.00 Build 0)  -->
<svg version="1.1" id="图层_1" xmlns="http://www.w3.org/2000/svg" xmlns:xlink="http://www.w3.org/1999/xlink" x="0px" y="0px"
	 viewBox="0 0 1024 1024" style="enable-background:new 0 0 1024 1024;" xml:space="preserve">
<style type="text/css">
	.st0{fill:none;stroke:#000000;stroke-width:40;stroke-linecap:round;stroke-linejoin:round;stroke-miterlimit:10;}
	.st1{fill:none;stroke:#000000;stroke-width:40;stroke-linecap:round;stroke-miterlimit:10;}
	.st2{fill:none;stroke:#000000;stroke-width:40;stroke-miterlimit:10;}
</style>
<g>
	<path d="M955.85,591.51h-90.71V137.15c0-43.25-35.19-78.44-78.44-78.44H225c-43.25,0-78.44,35.19-78.44,78.44v454.36H55.85
		c-11.05,0-20,8.95-20,20v283.61c0,38.81,31.57,70.38,70.38,70.38h799.23c38.81,0,70.38-31.57,70.38-70.38V611.51
		C975.85,600.46,966.9,591.51,955.85,591.51z M186.56,137.15c0-21.19,17.24-38.44,38.44-38.44h561.71
		c21.19,0,38.44,17.24,38.44,38.44v454.36h-86.89c-11.05,0-20,8.95-20,20c0,70.82-57.62,128.44-128.44,128.44H421.9
		c-70.82,0-128.44-57.62-128.44-128.44c0-11.05-8.95-20-20-20h-86.89V137.15z M935.85,895.11c0,16.75-13.63,30.38-30.38,30.38
		H106.24c-16.75,0-30.38-13.63-30.38-30.38V631.51h178.78c9.92,83.48,81.15,148.44,167.26,148.44h167.92
		c86.11,0,157.34-64.96,167.26-148.44h178.78V895.11z"/>
	<path d="M338.86,316.44h333.99c11.05,0,20-8.95,20-20s-8.95-20-20-20H338.86c-11.05,0-20,8.95-20,20S327.81,316.44,338.86,316.44z"
		/>
	<path d="M619.63,459.34H392.08c-11.05,0-20,8.95-20,20s8.95,20,20,20h227.55c11.05,0,20-8.95,20-20S630.68,459.34,619.63,459.34z"
		/>
</g>
</svg>
