<?xml version="1.0" encoding="utf-8"?>
<!-- Generator: Adobe Illustrator 24.0.1, SVG Export Plug-In . SVG Version: 6.00 Build 0)  -->
<svg version="1.1" id="图层_1" xmlns="http://www.w3.org/2000/svg" xmlns:xlink="http://www.w3.org/1999/xlink" x="0px" y="0px"
	 viewBox="0 0 1024 1024" style="enable-background:new 0 0 1024 1024;" xml:space="preserve">
<style type="text/css">
	.st0{fill:none;stroke:#000000;stroke-width:40;stroke-linecap:round;stroke-linejoin:round;stroke-miterlimit:10;}
	.st1{fill:none;stroke:#000000;stroke-width:40;stroke-linecap:round;stroke-miterlimit:10;}
	.st2{fill:none;stroke:#000000;stroke-width:40;stroke-miterlimit:10;}
</style>
<g>
	<path d="M899.21,239.13H545.28l-11.79-42.71c-9.16-33.19-46.17-59.19-84.25-59.19H109.38c-18.76,0-36.54,6.27-50.08,17.65
		c-14.58,12.26-22.61,28.9-22.61,46.85v96.81c0,1.78,0.08,3.58,0.24,5.43c-0.12,0.99-0.24,2.24-0.24,3.67v512.42
		c0,41.62,36,75.49,80.25,75.49h782.27c44.25,0,80.25-33.86,80.25-75.49V314.62C979.46,273,943.46,239.13,899.21,239.13z
		 M939.46,820.08c0,19.57-18.06,35.49-40.25,35.49H116.94c-22.19,0-40.25-15.92-40.25-35.49v-511.6c0.1-0.65,0.23-1.57,0.32-2.67
		l0.16-2.01l-0.25-2c-0.15-1.2-0.22-2.26-0.22-3.24v-96.81c0-13.28,14.97-24.51,32.69-24.51h339.86c19.96,0,41.31,13.94,45.7,29.83
		l14.39,52.15c3.24,11.73,14.18,19.93,26.61,19.93h363.28c22.19,0,40.25,15.92,40.25,35.49V820.08z"/>
	<path d="M508.07,366.19c-110.4,0-200.21,89.81-200.21,200.21c0,110.4,89.81,200.21,200.21,200.21
		c110.4,0,200.21-89.81,200.21-200.21C708.28,456,618.47,366.19,508.07,366.19z M508.07,726.61c-88.34,0-160.21-71.87-160.21-160.21
		s71.87-160.21,160.21-160.21c88.34,0,160.21,71.87,160.21,160.21S596.41,726.61,508.07,726.61z"/>
	<path d="M584.89,546.4h-56.82v-56.82c0-11.05-8.95-20-20-20s-20,8.95-20,20v56.82h-56.82c-11.05,0-20,8.95-20,20s8.95,20,20,20
		h56.82v56.82c0,11.05,8.95,20,20,20s20-8.95,20-20V586.4h56.82c11.05,0,20-8.95,20-20S595.94,546.4,584.89,546.4z"/>
</g>
</svg>
