<?xml version="1.0" encoding="utf-8"?>
<!-- Generator: Adobe Illustrator 24.0.1, SVG Export Plug-In . SVG Version: 6.00 Build 0)  -->
<svg version="1.1" id="图层_1" xmlns="http://www.w3.org/2000/svg" xmlns:xlink="http://www.w3.org/1999/xlink" x="0px" y="0px"
	 viewBox="0 0 1024 1024" style="enable-background:new 0 0 1024 1024;" xml:space="preserve">
<style type="text/css">
	.st0{fill:none;stroke:#000000;stroke-width:40;stroke-linecap:round;stroke-linejoin:round;stroke-miterlimit:10;}
	.st1{fill:none;stroke:#000000;stroke-width:40;stroke-linecap:round;stroke-miterlimit:10;}
	.st2{fill:none;stroke:#000000;stroke-width:40;stroke-miterlimit:10;}
</style>
<g>
	<path d="M797.35,46.4H390.68c-0.63,0-1.25,0.04-1.87,0.09c-0.09,0.01-0.18,0.01-0.27,0.02c-0.56,0.06-1.11,0.15-1.65,0.25
		c-0.15,0.03-0.29,0.06-0.44,0.09c-0.51,0.11-1.01,0.24-1.5,0.39c-0.16,0.05-0.33,0.1-0.49,0.16c-0.48,0.16-0.96,0.33-1.43,0.52
		c-0.14,0.06-0.27,0.12-0.41,0.18c-0.43,0.19-0.85,0.39-1.26,0.61c-0.09,0.05-0.19,0.1-0.29,0.15c-0.47,0.26-0.93,0.54-1.38,0.84
		c-0.1,0.07-0.21,0.14-0.31,0.21c-0.45,0.31-0.88,0.63-1.3,0.97c-0.09,0.07-0.17,0.14-0.26,0.21c-0.43,0.36-0.85,0.74-1.25,1.13
		c-0.04,0.04-0.08,0.09-0.13,0.13c-0.38,0.38-0.74,0.78-1.09,1.2c-0.05,0.06-0.11,0.12-0.16,0.19c-0.02,0.03-0.05,0.05-0.07,0.08
		L173.03,303.6c-0.33,0.41-0.64,0.83-0.93,1.26c-0.12,0.17-0.22,0.34-0.33,0.51c-0.24,0.37-0.48,0.75-0.69,1.13
		c-0.14,0.25-0.26,0.51-0.39,0.77c-0.14,0.28-0.28,0.56-0.41,0.85c-0.13,0.28-0.23,0.57-0.35,0.86c-0.11,0.28-0.21,0.56-0.31,0.84
		c-0.1,0.29-0.19,0.59-0.27,0.89c-0.09,0.3-0.16,0.6-0.23,0.91c-0.07,0.28-0.13,0.57-0.19,0.86c-0.07,0.36-0.12,0.73-0.17,1.09
		c-0.03,0.24-0.07,0.48-0.09,0.72c-0.06,0.6-0.09,1.2-0.09,1.8c0,0.02,0,0.05,0,0.07c0,0,0,0,0,0.01c0,0,0,0,0,0.01v599.84
		c0,38.8,31.57,70.37,70.37,70.37h558.4c38.8,0,70.37-31.57,70.37-70.37V116.77C867.72,77.97,836.15,46.4,797.35,46.4z
		 M370.68,122.91v173.4l-140.22-0.1L370.68,122.91z M827.72,916.03c0,16.75-13.62,30.37-30.37,30.37h-558.4
		c-16.75,0-30.37-13.62-30.37-30.37V336.2l182.09,0.13c0,0,0.01,0,0.01,0c5.3,0,10.39-2.11,14.14-5.85
		c3.75-3.75,5.86-8.84,5.86-14.15V86.4h386.67c16.75,0,30.37,13.62,30.37,30.37V916.03z"/>
	<path d="M526.7,366.55c-107.72,0-195.36,87.64-195.36,195.36c0,107.72,87.64,195.36,195.36,195.36
		c107.72,0,195.36-87.64,195.36-195.36C722.05,454.19,634.42,366.55,526.7,366.55z M526.7,717.26
		c-85.66,0-155.36-69.69-155.36-155.36s69.69-155.36,155.36-155.36c85.66,0,155.36,69.69,155.36,155.36S612.36,717.26,526.7,717.26z
		"/>
	<path d="M592.27,497.34l-86.71,86.71l-44.43-44.43c-7.81-7.81-20.47-7.81-28.28,0c-7.81,7.81-7.81,20.47,0,28.28l58.58,58.58
		c3.9,3.91,9.02,5.86,14.14,5.86c5.12,0,10.24-1.95,14.14-5.86l100.85-100.85c7.81-7.81,7.81-20.47,0-28.29
		C612.74,489.53,600.08,489.53,592.27,497.34z"/>
</g>
</svg>
