<?xml version="1.0" encoding="utf-8"?>
<!-- Generator: Adobe Illustrator 24.0.1, SVG Export Plug-In . SVG Version: 6.00 Build 0)  -->
<svg version="1.1" id="图层_1" xmlns="http://www.w3.org/2000/svg" xmlns:xlink="http://www.w3.org/1999/xlink" x="0px" y="0px"
	 viewBox="0 0 1024 1024" style="enable-background:new 0 0 1024 1024;" xml:space="preserve">
<style type="text/css">
	.st0{fill:none;stroke:#000000;stroke-width:40;stroke-linecap:round;stroke-linejoin:round;stroke-miterlimit:10;}
	.st1{fill:none;stroke:#000000;stroke-width:40;stroke-linecap:round;stroke-miterlimit:10;}
	.st2{fill:none;stroke:#000000;stroke-width:40;stroke-miterlimit:10;}
</style>
<g>
	<path d="M786.44,42.82H227.3c-38.6,0-70,31.4-70,70v800c0,38.6,31.4,70,70,70h305.95c86.33,0,167.49-33.62,228.53-94.66
		c61.04-61.04,94.66-142.2,94.66-228.53V112.82C856.44,74.22,825.04,42.82,786.44,42.82z M816.44,659.63
		c0,156.15-127.04,283.19-283.19,283.19H227.3c-16.54,0-30-13.46-30-30v-800c0-16.54,13.46-30,30-30h559.14c16.54,0,30,13.46,30,30
		V659.63z"/>
	<path d="M714.34,256.98H299.41c-11.05,0-20,8.95-20,20s8.95,20,20,20h414.93c11.05,0,20-8.95,20-20S725.38,256.98,714.34,256.98z"
		/>
	<path d="M714.34,465.18H299.41c-11.05,0-20,8.95-20,20s8.95,20,20,20h414.93c11.05,0,20-8.95,20-20S725.38,465.18,714.34,465.18z"
		/>
	<path d="M714.34,673.39H299.41c-11.05,0-20,8.95-20,20s8.95,20,20,20h414.93c11.05,0,20-8.95,20-20S725.38,673.39,714.34,673.39z"
		/>
</g>
</svg>
