<?xml version="1.0" encoding="utf-8"?>
<!-- Generator: Adobe Illustrator 24.0.1, SVG Export Plug-In . SVG Version: 6.00 Build 0)  -->
<svg version="1.1" id="图层_1" xmlns="http://www.w3.org/2000/svg" xmlns:xlink="http://www.w3.org/1999/xlink" x="0px" y="0px"
	 viewBox="0 0 1024 1024" style="enable-background:new 0 0 1024 1024;" xml:space="preserve">
<style type="text/css">
	.st0{fill:none;stroke:#000000;stroke-width:40;stroke-linecap:round;stroke-linejoin:round;stroke-miterlimit:10;}
	.st1{fill:none;stroke:#000000;stroke-width:40;stroke-linecap:round;stroke-miterlimit:10;}
	.st2{fill:none;stroke:#000000;stroke-width:40;stroke-miterlimit:10;}
</style>
<g>
	<path d="M909.29,249.27H704.05v-37.71c0-39.69-32.29-71.97-71.97-71.97h-251.2c-39.69,0-71.97,32.29-71.97,71.97v37.71H103.66
		c-37.05,0-67.18,30.14-67.18,67.18V820.3c0,37.05,30.14,67.18,67.18,67.18h805.63c37.05,0,67.18-30.14,67.18-67.18V316.45
		C976.48,279.41,946.34,249.27,909.29,249.27z M348.9,211.56c0-17.63,14.34-31.97,31.97-31.97h251.2
		c17.63,0,31.97,14.34,31.97,31.97v37.71H348.9V211.56z M103.66,289.27h805.63c14.99,0,27.18,12.19,27.18,27.18V439.6h-860V316.45
		C76.48,301.46,88.67,289.27,103.66,289.27z M728.51,479.6v367.88H284.44V479.6H728.51z M76.48,820.3V479.6h167.96v367.88H103.66
		C88.67,847.48,76.48,835.29,76.48,820.3z M909.29,847.48H768.51V479.6h167.96v340.7C936.48,835.29,924.28,847.48,909.29,847.48z"/>
</g>
</svg>
