<?xml version="1.0" encoding="utf-8"?>
<!-- Generator: Adobe Illustrator 24.0.1, SVG Export Plug-In . SVG Version: 6.00 Build 0)  -->
<svg version="1.1" id="图层_1" xmlns="http://www.w3.org/2000/svg" xmlns:xlink="http://www.w3.org/1999/xlink" x="0px" y="0px"
	 viewBox="0 0 1024 1024" style="enable-background:new 0 0 1024 1024;" xml:space="preserve">
<style type="text/css">
	.st0{fill:none;stroke:#000000;stroke-width:40;stroke-linecap:round;stroke-linejoin:round;stroke-miterlimit:10;}
	.st1{fill:none;stroke:#000000;stroke-width:40;stroke-linecap:round;stroke-miterlimit:10;}
	.st2{fill:none;stroke:#000000;stroke-width:40;stroke-miterlimit:10;}
</style>
<g>
	<path d="M91.34,942.27c3.91,3.91,9.02,5.86,14.14,5.86c5.12,0,10.24-1.95,14.14-5.86l66.07-66.07l66.07,66.07
		c3.91,3.91,9.02,5.86,14.14,5.86c0.25,0,0.5-0.03,0.75-0.04c0.25,0.01,0.5,0.04,0.75,0.04c5.12,0,10.24-1.95,14.14-5.86
		l66.07-66.07l66.07,66.07c3.91,3.91,9.02,5.86,14.14,5.86c0.04,0,0.09-0.01,0.13-0.01c0.04,0,0.09,0.01,0.13,0.01
		c5.12,0,10.24-1.95,14.14-5.86l66.07-66.07l66.07,66.07c3.91,3.91,9.02,5.86,14.14,5.86c0.18,0,0.36-0.02,0.54-0.03
		c0.18,0,0.36,0.03,0.54,0.03c5.12,0,10.24-1.95,14.14-5.86l66.07-66.07l66.07,66.07c3.91,3.91,9.02,5.86,14.14,5.86
		c0.04,0,0.09-0.01,0.13-0.01c0.04,0,0.09,0.01,0.13,0.01c5.12,0,10.24-1.95,14.14-5.86l66.07-66.07l66.07,66.07
		c3.91,3.91,9.02,5.86,14.14,5.86s10.24-1.95,14.14-5.86c4.53-4.53,6.41-10.68,5.69-16.58c0.1-0.81,0.17-1.63,0.17-2.46V146.51
		c0-38.05-30.48-69-67.93-69H153.36c-37.46,0-67.93,30.96-67.93,69v776.72c0,0.91,0.08,1.8,0.2,2.67
		C84.97,931.73,86.87,937.8,91.34,942.27z M153.36,117.51h709.43c15.4,0,27.93,13.01,27.93,29v733.33l-45.9-45.9
		c-3.95-3.95-9.14-5.89-14.32-5.85c-5.18-0.04-10.37,1.9-14.32,5.85l-66.03,66.03l-66.03-66.03c-3.95-3.95-9.14-5.89-14.31-5.85
		c-5.18-0.05-10.37,1.9-14.32,5.85l-66.44,66.44l-66.44-66.44c-3.95-3.95-9.14-5.89-14.32-5.85c-5.18-0.04-10.36,1.9-14.31,5.85
		l-66.03,66.03l-66.03-66.03c-3.95-3.95-9.14-5.89-14.32-5.85c-5.18-0.04-10.36,1.9-14.31,5.85l-66.64,66.64l-66.64-66.64
		c-3.95-3.95-9.14-5.89-14.32-5.85c-5.18-0.04-10.36,1.9-14.31,5.85l-45.96,45.96v-733.4C125.42,130.52,137.95,117.51,153.36,117.51
		z"/>
	<path d="M786.85,443.81H544.97c-12.68,0-23,10.32-23,23v241.88c0,12.68,10.32,23,23,23h241.88c12.68,0,23-10.32,23-23V466.81
		C809.85,454.13,799.53,443.81,786.85,443.81z M769.85,691.69H561.97V483.81h207.88V691.69z"/>
	<path d="M214.86,720.26h210.72c11.05,0,20-8.95,20-20s-8.95-20-20-20H214.86c-11.05,0-20,8.95-20,20S203.82,720.26,214.86,720.26z"
		/>
	<path d="M214.86,603.47h210.72c11.05,0,20-8.95,20-20s-8.95-20-20-20H214.86c-11.05,0-20,8.95-20,20S203.82,603.47,214.86,603.47z"
		/>
	<path d="M214.86,486.67h210.72c11.05,0,20-8.95,20-20s-8.95-20-20-20H214.86c-11.05,0-20,8.95-20,20S203.82,486.67,214.86,486.67z"
		/>
	<path d="M214.86,369.88h576.62c11.05,0,20-8.95,20-20s-8.95-20-20-20H214.86c-11.05,0-20,8.95-20,20S203.82,369.88,214.86,369.88z"
		/>
	<path d="M214.86,253.09h576.62c11.05,0,20-8.95,20-20s-8.95-20-20-20H214.86c-11.05,0-20,8.95-20,20S203.82,253.09,214.86,253.09z"
		/>
</g>
</svg>
