<?xml version="1.0" encoding="utf-8"?>
<!-- Generator: Adobe Illustrator 24.0.1, SVG Export Plug-In . SVG Version: 6.00 Build 0)  -->
<svg version="1.1" id="图层_1" xmlns="http://www.w3.org/2000/svg" xmlns:xlink="http://www.w3.org/1999/xlink" x="0px" y="0px"
	 viewBox="0 0 1024 1024" style="enable-background:new 0 0 1024 1024;" xml:space="preserve">
<style type="text/css">
	.st0{fill:none;stroke:#000000;stroke-width:40;stroke-linecap:round;stroke-linejoin:round;stroke-miterlimit:10;}
	.st1{fill:none;stroke:#000000;stroke-width:40;stroke-linecap:round;stroke-miterlimit:10;}
	.st2{fill:none;stroke:#000000;stroke-width:40;stroke-miterlimit:10;}
</style>
<g>
	<path d="M918.12,322.94H680.98L543.09,185.05c-16.91-16.91-39.4-26.22-63.31-26.22H137.68c-49.37,0-89.54,40.17-89.54,89.54V851.1
		c0,0.05,0.01,0.1,0.01,0.15c0,0.59,0.03,1.18,0.09,1.76c0.01,0.06,0.01,0.12,0.01,0.18c0.06,0.56,0.15,1.11,0.25,1.67
		c0.03,0.15,0.06,0.31,0.09,0.46c0.11,0.51,0.24,1.01,0.39,1.51c0.05,0.17,0.11,0.35,0.17,0.52c0.15,0.46,0.31,0.91,0.49,1.35
		c0.06,0.15,0.13,0.3,0.19,0.44c0.18,0.41,0.38,0.82,0.59,1.22c0.07,0.14,0.15,0.29,0.22,0.43c0.25,0.46,0.53,0.91,0.82,1.35
		c0.08,0.12,0.16,0.23,0.24,0.35c0.1,0.15,0.2,0.3,0.31,0.45c0.2,0.27,0.41,0.54,0.63,0.8c0.03,0.04,0.06,0.07,0.09,0.11
		c0.36,0.44,0.75,0.85,1.14,1.26c0.08,0.08,0.16,0.16,0.24,0.25c0.4,0.39,0.81,0.77,1.24,1.12c0.07,0.06,0.15,0.12,0.22,0.18
		c0.39,0.32,0.8,0.62,1.21,0.91c0.08,0.06,0.16,0.12,0.24,0.17c0.44,0.29,0.9,0.57,1.36,0.83c0.15,0.08,0.29,0.16,0.44,0.24
		c0.45,0.24,0.92,0.46,1.39,0.67c0.15,0.06,0.3,0.12,0.45,0.18c0.4,0.16,0.81,0.31,1.22,0.45c0.14,0.05,0.28,0.1,0.43,0.14
		c0.5,0.15,1.02,0.28,1.53,0.39c0.16,0.03,0.32,0.07,0.48,0.1c0.54,0.1,1.09,0.19,1.64,0.25c0.12,0.01,0.23,0.02,0.35,0.03
		c0.61,0.06,1.21,0.09,1.83,0.09h0l0,0l0,0h721.7c30.73,0,57.56-19.7,66.77-49.01l128.27-408.18c6.75-21.49,2.98-44.24-10.35-62.4
		C961.21,333.36,940.65,322.94,918.12,322.94z M137.68,198.83h342.09c13.23,0,25.67,5.15,35.03,14.51l109.6,109.6H264.53
		c-30.73,0-57.56,19.7-66.77,49.01L88.15,720.75V248.37C88.15,221.05,110.37,198.83,137.68,198.83z M946.73,401.93L818.46,810.1
		c-3.95,12.56-15.45,21-28.61,21H95.4l140.52-447.16c3.95-12.56,15.45-21,28.61-21h653.59c9.65,0,18.47,4.46,24.18,12.25
		C948.01,382.97,949.63,392.72,946.73,401.93z"/>
</g>
</svg>
