<?xml version="1.0" encoding="utf-8"?>
<!-- Generator: Adobe Illustrator 24.0.1, SVG Export Plug-In . SVG Version: 6.00 Build 0)  -->
<svg version="1.1" id="图层_1" xmlns="http://www.w3.org/2000/svg" xmlns:xlink="http://www.w3.org/1999/xlink" x="0px" y="0px"
	 viewBox="0 0 1024 1024" style="enable-background:new 0 0 1024 1024;" xml:space="preserve">
<style type="text/css">
	.st0{fill:none;stroke:#000000;stroke-width:40;stroke-linecap:round;stroke-linejoin:round;stroke-miterlimit:10;}
	.st1{fill:none;stroke:#000000;stroke-width:40;stroke-linecap:round;stroke-miterlimit:10;}
	.st2{fill:none;stroke:#000000;stroke-width:40;stroke-miterlimit:10;}
</style>
<g>
	<path d="M933.84,140.68c0-27.61-22.39-50-50-50h-750c-27.61,0-50,22.39-50,50v178.63h850V140.68z"/>
	<path d="M933.84,890.68V339.31h-850v551.37c0,27.61,22.39,50,50,50h750C911.45,940.68,933.84,918.3,933.84,890.68z M623.05,450.38
		H394.62c-11.05,0-20-8.95-20-20s8.95-20,20-20h228.43c11.05,0,20,8.95,20,20S634.1,450.38,623.05,450.38z"/>
</g>
</svg>
