<?xml version="1.0" encoding="utf-8"?>
<!-- Generator: Adobe Illustrator 24.0.1, SVG Export Plug-In . SVG Version: 6.00 Build 0)  -->
<svg version="1.1" id="图层_1" xmlns="http://www.w3.org/2000/svg" xmlns:xlink="http://www.w3.org/1999/xlink" x="0px" y="0px"
	 viewBox="0 0 1024 1024" style="enable-background:new 0 0 1024 1024;" xml:space="preserve">
<style type="text/css">
	.st0{fill:none;stroke:#000000;stroke-width:40;stroke-linecap:round;stroke-linejoin:round;stroke-miterlimit:10;}
	.st1{fill:none;stroke:#000000;stroke-width:40;stroke-linecap:round;stroke-miterlimit:10;}
	.st2{fill:none;stroke:#000000;stroke-width:40;stroke-miterlimit:10;}
</style>
<g>
	<path d="M109.22,935.5h799.23c22.27,0,40.38-18.12,40.38-40.38V621.51H750.93c-5.18,82.72-74.12,148.44-158.13,148.44H424.88
		c-84,0-152.95-65.72-158.13-148.44H68.84v273.61C68.84,917.38,86.95,935.5,109.22,935.5z"/>
	<path d="M286.44,611.51c0,76.34,62.1,138.44,138.44,138.44H592.8c76.34,0,138.44-62.1,138.44-138.44c0-5.52,4.48-10,10-10h96.89
		V137.15c0-26.71-21.73-48.44-48.44-48.44H227.98c-26.71,0-48.44,21.73-48.44,48.44v464.36h96.89
		C281.96,601.51,286.44,605.98,286.44,611.51z M622.61,499.34H395.06c-11.05,0-20-8.95-20-20s8.95-20,20-20h227.55
		c11.05,0,20,8.95,20,20S633.66,499.34,622.61,499.34z M341.84,276.44h333.99c11.05,0,20,8.95,20,20s-8.95,20-20,20H341.84
		c-11.05,0-20-8.95-20-20S330.8,276.44,341.84,276.44z"/>
</g>
</svg>
