<?xml version="1.0" encoding="utf-8"?>
<!-- Generator: Adobe Illustrator 24.0.1, SVG Export Plug-In . SVG Version: 6.00 Build 0)  -->
<svg version="1.1" id="图层_1" xmlns="http://www.w3.org/2000/svg" xmlns:xlink="http://www.w3.org/1999/xlink" x="0px" y="0px"
	 viewBox="0 0 1024 1024" style="enable-background:new 0 0 1024 1024;" xml:space="preserve">
<style type="text/css">
	.st0{fill:none;stroke:#000000;stroke-width:40;stroke-linecap:round;stroke-linejoin:round;stroke-miterlimit:10;}
	.st1{fill:none;stroke:#000000;stroke-width:40;stroke-linecap:round;stroke-miterlimit:10;}
	.st2{fill:none;stroke:#000000;stroke-width:40;stroke-miterlimit:10;}
</style>
<g>
	<path d="M432.32,964.25c231.06,0,418.38-187.31,418.38-418.38V114.25c0-27.61-22.39-50-50-50H241.56c-27.61,0-50,22.39-50,50v800
		c0,27.61,22.39,50,50,50H432.32z M313.67,258.41h414.93c11.05,0,20,8.95,20,20s-8.95,20-20,20H313.67c-11.05,0-20-8.95-20-20
		S302.62,258.41,313.67,258.41z M313.67,466.61h334.93c11.05,0,20,8.95,20,20s-8.95,20-20,20H313.67c-11.05,0-20-8.95-20-20
		S302.62,466.61,313.67,466.61z M313.67,674.82h234.93c11.05,0,20,8.95,20,20s-8.95,20-20,20H313.67c-11.05,0-20-8.95-20-20
		S302.62,674.82,313.67,674.82z"/>
</g>
</svg>
