<?xml version="1.0" encoding="utf-8"?>
<!-- Generator: Adobe Illustrator 24.0.1, SVG Export Plug-In . SVG Version: 6.00 Build 0)  -->
<svg version="1.1" id="图层_1" xmlns="http://www.w3.org/2000/svg" xmlns:xlink="http://www.w3.org/1999/xlink" x="0px" y="0px"
	 viewBox="0 0 1024 1024" style="enable-background:new 0 0 1024 1024;" xml:space="preserve">
<style type="text/css">
	.st0{fill:none;stroke:#000000;stroke-width:40;stroke-linecap:round;stroke-linejoin:round;stroke-miterlimit:10;}
	.st1{fill:none;stroke:#000000;stroke-width:40;stroke-linecap:round;stroke-miterlimit:10;}
	.st2{fill:none;stroke:#000000;stroke-width:40;stroke-miterlimit:10;}
</style>
<g>
	<path d="M199.41,962.82h643.43c35.56,0,64.39-28.83,64.39-64.4V717.36V309.11v-181.9c0-35.56-28.83-64.4-64.39-64.4H199.41
		c-35.56,0-64.4,28.83-64.4,64.4v181.07v408.24v181.9C135.02,933.99,163.85,962.82,199.41,962.82z M322.43,242.62h397.41
		c11.05,0,20,8.95,20,20s-8.95,20-20,20H322.43c-11.05,0-20-8.95-20-20S311.38,242.62,322.43,242.62z M322.43,440.3h397.41
		c11.05,0,20,8.95,20,20s-8.95,20-20,20H322.43c-11.05,0-20-8.95-20-20S311.38,440.3,322.43,440.3z M322.43,637.98h257.44
		c11.05,0,20,8.95,20,20s-8.95,20-20,20H322.43c-11.05,0-20-8.95-20-20S311.38,637.98,322.43,637.98z"/>
</g>
</svg>
