<?xml version="1.0" encoding="utf-8"?>
<!-- Generator: Adobe Illustrator 24.0.1, SVG Export Plug-In . SVG Version: 6.00 Build 0)  -->
<svg version="1.1" id="图层_1" xmlns="http://www.w3.org/2000/svg" xmlns:xlink="http://www.w3.org/1999/xlink" x="0px" y="0px"
	 viewBox="0 0 1024 1024" style="enable-background:new 0 0 1024 1024;" xml:space="preserve">
<style type="text/css">
	.st0{fill:none;stroke:#000000;stroke-width:40;stroke-linecap:round;stroke-linejoin:round;stroke-miterlimit:10;}
	.st1{fill:none;stroke:#000000;stroke-width:40;stroke-linecap:round;stroke-miterlimit:10;}
	.st2{fill:none;stroke:#000000;stroke-width:40;stroke-miterlimit:10;}
</style>
<g>
	<path d="M178.14,952.1h663.43c22.06,0,40-17.94,40-40v-558.1H638.94c-5.52,0-10-4.48-10-10V72.1h-450.8c-22.06,0-40,17.94-40,40
		v800C138.14,934.16,156.09,952.1,178.14,952.1z M524.76,442.25h268.35c11.05,0,20,8.95,20,20s-8.95,20-20,20H524.76
		c-11.05,0-20-8.95-20-20S513.72,442.25,524.76,442.25z M524.76,612.59h268.35c11.05,0,20,8.95,20,20s-8.95,20-20,20H524.76
		c-11.05,0-20-8.95-20-20S513.72,612.59,524.76,612.59z M524.76,774.7h268.35c11.05,0,20,8.95,20,20s-8.95,20-20,20H524.76
		c-11.05,0-20-8.95-20-20S513.72,774.7,524.76,774.7z M226.6,278.56h205.28v205.28H226.6V278.56z M226.6,611.01h205.28v205.28H226.6
		V611.01z"/>
	<polygon points="648.94,88.05 648.94,334.01 871.57,334.01 	"/>
</g>
</svg>
