<?xml version="1.0" encoding="utf-8"?>
<!-- Generator: Adobe Illustrator 24.0.1, SVG Export Plug-In . SVG Version: 6.00 Build 0)  -->
<svg version="1.1" id="图层_1" xmlns="http://www.w3.org/2000/svg" xmlns:xlink="http://www.w3.org/1999/xlink" x="0px" y="0px"
	 viewBox="0 0 1024 1024" style="enable-background:new 0 0 1024 1024;" xml:space="preserve">
<style type="text/css">
	.st0{fill:none;stroke:#000000;stroke-width:40;stroke-linecap:round;stroke-linejoin:round;stroke-miterlimit:10;}
	.st1{fill:none;stroke:#000000;stroke-width:40;stroke-linecap:round;stroke-miterlimit:10;}
	.st2{fill:none;stroke:#000000;stroke-width:40;stroke-miterlimit:10;}
</style>
<g>
	<polygon points="266.23,404.43 266.23,174.64 80.41,404.29 	"/>
	<path d="M905.44,156.38H286.23v258.05c0,2.65-1.05,5.2-2.93,7.07c-1.88,1.87-4.42,2.93-7.07,2.93c0,0,0,0-0.01,0l-206.76-0.15
		V832.4c0,24.27,19.75,44.02,44.02,44.02h791.95c24.27,0,44.02-19.75,44.02-44.02V200.4C949.46,176.13,929.71,156.38,905.44,156.38z
		 M345.17,664.67h-31.02v-60.06h-62.03v60.06h-31.02V519.08h31.02v58.74h62.03v-58.74h31.02V664.67z M498.92,544.46h-41.54v120.21
		h-31.11V544.46h-41.45v-25.38h114.1V544.46z M702.01,664.67h-30.64v-88.35c0-8.14,0.41-18.39,1.22-30.73h-0.75
		c-1.88,9.34-3.38,15.57-4.51,18.7l-35.9,100.38h-24.72l-36.37-99.44c-0.88-2.38-2.41-8.93-4.61-19.64h-0.85
		c0.81,12.22,1.22,24.47,1.22,36.75v82.33h-28.01V519.08h45.12l31.39,87.97c2.63,7.27,4.42,14.1,5.36,20.49h0.66
		c1.94-7.96,3.95-14.85,6.02-20.68l31.49-87.79h43.89V664.67z M840.72,664.67h-85.44V519.08h31.02v120.21h54.42V664.67z"/>
</g>
</svg>
