<?xml version="1.0" encoding="utf-8"?>
<!-- Generator: Adobe Illustrator 24.0.1, SVG Export Plug-In . SVG Version: 6.00 Build 0)  -->
<svg version="1.1" id="图层_1" xmlns="http://www.w3.org/2000/svg" xmlns:xlink="http://www.w3.org/1999/xlink" x="0px" y="0px"
	 viewBox="0 0 1024 1024" style="enable-background:new 0 0 1024 1024;" xml:space="preserve">
<style type="text/css">
	.st0{fill:none;stroke:#000000;stroke-width:40;stroke-linecap:round;stroke-linejoin:round;stroke-miterlimit:10;}
	.st1{fill:none;stroke:#000000;stroke-width:40;stroke-linecap:round;stroke-miterlimit:10;}
	.st2{fill:none;stroke:#000000;stroke-width:40;stroke-miterlimit:10;}
</style>
<g>
	<path d="M909.86,339.03h-800c-27.61,0-50,22.39-50,50v492.65c0,27.61,22.39,50,50,50h800c27.61,0,50-22.39,50-50V389.03
		C959.86,361.42,937.47,339.03,909.86,339.03z"/>
	<path d="M117.44,259.54c0,11.05,8.95,20,20,20h744.83c11.05,0,20-8.95,20-20s-8.95-20-20-20H137.44
		C126.4,239.54,117.44,248.49,117.44,259.54z"/>
	<path d="M191.68,180.32c0,11.05,8.95,20,20,20h596.36c11.05,0,20-8.95,20-20s-8.95-20-20-20H211.68
		C200.63,160.32,191.68,169.28,191.68,180.32z"/>
	<path d="M742.46,121.11c11.05,0,20-8.95,20-20s-8.95-20-20-20H277.25c-11.05,0-20,8.95-20,20s8.95,20,20,20H742.46z"/>
</g>
</svg>
