<?xml version="1.0" encoding="utf-8"?>
<!-- Generator: Adobe Illustrator 24.0.1, SVG Export Plug-In . SVG Version: 6.00 Build 0)  -->
<svg version="1.1" id="图层_1" xmlns="http://www.w3.org/2000/svg" xmlns:xlink="http://www.w3.org/1999/xlink" x="0px" y="0px"
	 viewBox="0 0 1024 1024" style="enable-background:new 0 0 1024 1024;" xml:space="preserve">
<style type="text/css">
	.st0{fill:none;stroke:#000000;stroke-width:40;stroke-linecap:round;stroke-linejoin:round;stroke-miterlimit:10;}
	.st1{fill:none;stroke:#000000;stroke-width:40;stroke-linecap:round;stroke-miterlimit:10;}
	.st2{fill:none;stroke:#000000;stroke-width:40;stroke-miterlimit:10;}
</style>
<g>
	<path d="M230.28,62.82c-27.61,0-50,22.39-50,50v800c0,27.61,22.39,50,50,50h305.95c167.45,0,303.19-135.74,303.19-303.19V112.82
		c0-27.61-22.39-50-50-50H230.28z M717.32,713.39H302.39c-11.05,0-20-8.95-20-20s8.95-20,20-20h414.93c11.05,0,20,8.95,20,20
		S728.37,713.39,717.32,713.39z M717.32,505.18H302.39c-11.05,0-20-8.95-20-20s8.95-20,20-20h414.93c11.05,0,20,8.95,20,20
		S728.37,505.18,717.32,505.18z M717.32,296.98H302.39c-11.05,0-20-8.95-20-20s8.95-20,20-20h414.93c11.05,0,20,8.95,20,20
		S728.37,296.98,717.32,296.98z"/>
</g>
</svg>
