<?xml version="1.0" encoding="utf-8"?>
<!-- Generator: Adobe Illustrator 24.0.1, SVG Export Plug-In . SVG Version: 6.00 Build 0)  -->
<svg version="1.1" id="图层_1" xmlns="http://www.w3.org/2000/svg" xmlns:xlink="http://www.w3.org/1999/xlink" x="0px" y="0px"
	 viewBox="0 0 1024 1024" style="enable-background:new 0 0 1024 1024;" xml:space="preserve">
<style type="text/css">
	.st0{fill:none;stroke:#000000;stroke-width:40;stroke-linecap:round;stroke-linejoin:round;stroke-miterlimit:10;}
	.st1{fill:none;stroke:#000000;stroke-width:40;stroke-linecap:round;stroke-miterlimit:10;}
	.st2{fill:none;stroke:#000000;stroke-width:40;stroke-miterlimit:10;}
</style>
<g>
	<path d="M188.51,848.09h0.35l80.04,80.04h1.49l80.04-80.04h0.35l80.04,80.04h0.27l80.04-80.04h0.35l80.04,80.04h1.08l80.04-80.04
		h0.35l80.04,80.04h0.27l80.04-80.04h0.35l80.04,80.04v-4.9V146.51c0-26.95-21.57-49-47.93-49H156.34c-26.36,0-47.93,22.05-47.93,49
		v776.72l0.06,4.9L188.51,848.09z M792.83,708.69c0,1.65-1.35,3-3,3H547.95c-1.65,0-3-1.35-3-3V466.81c0-1.65,1.35-3,3-3h241.88
		c1.65,0,3,1.35,3,3V708.69z M217.85,213.09h576.62c11.05,0,20,8.95,20,20s-8.95,20-20,20H217.85c-11.05,0-20-8.95-20-20
		S206.8,213.09,217.85,213.09z M217.85,329.88h576.62c11.05,0,20,8.95,20,20s-8.95,20-20,20H217.85c-11.05,0-20-8.95-20-20
		S206.8,329.88,217.85,329.88z M217.85,446.67h210.72c11.05,0,20,8.95,20,20s-8.95,20-20,20H217.85c-11.05,0-20-8.95-20-20
		S206.8,446.67,217.85,446.67z M217.85,563.47h210.72c11.05,0,20,8.95,20,20s-8.95,20-20,20H217.85c-11.05,0-20-8.95-20-20
		S206.8,563.47,217.85,563.47z M217.85,680.26h210.72c11.05,0,20,8.95,20,20s-8.95,20-20,20H217.85c-11.05,0-20-8.95-20-20
		S206.8,680.26,217.85,680.26z"/>
</g>
</svg>
