<?xml version="1.0" encoding="utf-8"?>
<!-- Generator: Adobe Illustrator 24.0.1, SVG Export Plug-In . SVG Version: 6.00 Build 0)  -->
<svg version="1.1" id="图层_1" xmlns="http://www.w3.org/2000/svg" xmlns:xlink="http://www.w3.org/1999/xlink" x="0px" y="0px"
	 viewBox="0 0 1024 1024" style="enable-background:new 0 0 1024 1024;" xml:space="preserve">
<style type="text/css">
	.st0{fill:none;stroke:#000000;stroke-width:40;stroke-linecap:round;stroke-linejoin:round;stroke-miterlimit:10;}
	.st1{fill:none;stroke:#000000;stroke-width:40;stroke-linecap:round;stroke-miterlimit:10;}
	.st2{fill:none;stroke:#000000;stroke-width:40;stroke-miterlimit:10;}
</style>
<g>
	<path d="M873.05,318.42v-37.91c0-25.57-17.61-46.37-39.26-46.37H532.17c5.19,34.43,10.95,70.31,14,84.28H873.05z"/>
	<path d="M527.26,325.26c-0.84-3.52-1.83-8.41-3.03-14.94c-1.96-10.65-4.43-25.47-7.35-44.05c-4.55-29.01-8.8-58.38-9.49-63.16
		c-5.88-19.9-30.97-36.6-55.17-36.6H112.36c-23.54,0-42.69,15.48-42.69,34.51v96.81c0,1.39,0.1,2.86,0.3,4.47l0.12,1l-0.08,1
		c-0.06,0.83-0.17,1.54-0.26,2.12c-0.03,0.2-0.07,0.41-0.09,0.61v512.32c0,25.08,22.54,45.49,50.25,45.49h782.27
		c27.71,0,50.25-20.4,50.25-45.49V383.9c0-25.08-22.54-45.49-50.25-45.49H538.91C530.39,338.42,528.43,330.18,527.26,325.26z"/>
</g>
</svg>
