<?xml version="1.0" encoding="utf-8"?>
<!-- Generator: Adobe Illustrator 24.0.1, SVG Export Plug-In . SVG Version: 6.00 Build 0)  -->
<svg version="1.1" id="图层_1" xmlns="http://www.w3.org/2000/svg" xmlns:xlink="http://www.w3.org/1999/xlink" x="0px" y="0px"
	 viewBox="0 0 1024 1024" style="enable-background:new 0 0 1024 1024;" xml:space="preserve">
<style type="text/css">
	.st0{fill:none;stroke:#000000;stroke-width:40;stroke-linecap:round;stroke-linejoin:round;stroke-miterlimit:10;}
	.st1{fill:none;stroke:#000000;stroke-width:40;stroke-linecap:round;stroke-miterlimit:10;}
	.st2{fill:none;stroke:#000000;stroke-width:40;stroke-miterlimit:10;}
</style>
<g>
	<path d="M961.06,313.15c0-30.31-26.92-55.1-59.83-55.1H540.46c-3.43,0-6.43-2.15-7.28-5.21l-14.29-51.78
		c-6.79-24.61-35.75-44.2-64.52-44.2h-337.5c-28.78,0-52.33,19.59-52.33,44.2v96.14c0,1.91,0.14,3.8,0.37,5.67
		c-0.09,1.13-0.37,2.22-0.37,3.37v97.62h896.51V313.15z"/>
	<path d="M124.38,870.21h776.85c32.91,0,59.83-24.8,59.83-55.1V423.86H64.55v391.25C64.55,845.42,91.47,870.21,124.38,870.21z"/>
</g>
</svg>
