<?xml version="1.0" encoding="utf-8"?>
<!-- Generator: Adobe Illustrator 24.0.1, SVG Export Plug-In . SVG Version: 6.00 Build 0)  -->
<svg version="1.1" id="图层_1" xmlns="http://www.w3.org/2000/svg" xmlns:xlink="http://www.w3.org/1999/xlink" x="0px" y="0px"
	 viewBox="0 0 1024 1024" style="enable-background:new 0 0 1024 1024;" xml:space="preserve">
<style type="text/css">
	.st0{fill:none;stroke:#000000;stroke-width:40;stroke-linecap:round;stroke-linejoin:round;stroke-miterlimit:10;}
	.st1{fill:none;stroke:#000000;stroke-width:40;stroke-linecap:round;stroke-miterlimit:10;}
	.st2{fill:none;stroke:#000000;stroke-width:40;stroke-miterlimit:10;}
</style>
<g>
	<polygon points="201.23,304.05 372.39,304.17 372.39,92.51 	"/>
	<path d="M675.21,558.96c0-85.66-69.69-155.36-155.36-155.36c-37.44,0-71.82,13.31-98.67,35.45l218.58,218.58
		C661.9,630.78,675.21,596.4,675.21,558.96z"/>
	<path d="M190.28,913.88c0,22.26,18.11,40.37,40.37,40.37h558.4c22.26,0,40.37-18.11,40.37-40.37V114.62
		c0-22.26-18.11-40.37-40.37-40.37H392.39v239.93c0,2.65-1.05,5.2-2.93,7.07c-1.88,1.87-4.42,2.93-7.07,2.93c0,0,0,0-0.01,0
		l-192.1-0.14V913.88z M376.62,426.27c0.5-0.64,1.03-1.27,1.63-1.86c0.28-0.28,0.58-0.52,0.86-0.78
		c35.57-36.97,85.51-60.02,140.74-60.02c107.72,0,195.36,87.64,195.36,195.36c0,54.9-22.77,104.58-59.36,140.1
		c-0.43,0.53-0.9,1.05-1.39,1.55c-0.72,0.72-1.49,1.35-2.29,1.94c-34.83,32.12-81.32,51.77-132.32,51.77
		c-107.72,0-195.36-87.64-195.36-195.36C324.5,507.78,344.3,461.14,376.62,426.27z"/>
	<path d="M519.86,714.32c33.83,0,65.17-10.88,90.71-29.31L393.81,468.25c-18.43,25.54-29.31,56.88-29.31,90.71
		C364.5,644.63,434.19,714.32,519.86,714.32z"/>
</g>
</svg>
