<?xml version="1.0" encoding="utf-8"?>
<!-- Generator: Adobe Illustrator 24.0.1, SVG Export Plug-In . SVG Version: 6.00 Build 0)  -->
<svg version="1.1" id="图层_1" xmlns="http://www.w3.org/2000/svg" xmlns:xlink="http://www.w3.org/1999/xlink" x="0px" y="0px"
	 viewBox="0 0 1024 1024" style="enable-background:new 0 0 1024 1024;" xml:space="preserve">
<style type="text/css">
	.st0{fill:none;stroke:#000000;stroke-width:40;stroke-linecap:round;stroke-linejoin:round;stroke-miterlimit:10;}
	.st1{fill:none;stroke:#000000;stroke-width:40;stroke-linecap:round;stroke-miterlimit:10;}
	.st2{fill:none;stroke:#000000;stroke-width:40;stroke-miterlimit:10;}
</style>
<g>
	<path d="M511.06,406.19c-88.34,0-160.21,71.87-160.21,160.21s71.87,160.21,160.21,160.21s160.21-71.87,160.21-160.21
		S599.4,406.19,511.06,406.19z M587.88,586.4h-56.82v56.82c0,11.05-8.95,20-20,20s-20-8.95-20-20V586.4h-56.82
		c-11.05,0-20-8.95-20-20s8.95-20,20-20h56.82v-56.82c0-11.05,8.95-20,20-20s20,8.95,20,20v56.82h56.82c11.05,0,20,8.95,20,20
		S598.92,586.4,587.88,586.4z"/>
	<path d="M902.19,259.13H538.91c-3.46,0-6.47-2.16-7.33-5.25l-14.39-52.15c-6.84-24.78-35.99-44.51-64.97-44.51H112.36
		c-28.98,0-52.69,19.73-52.69,44.51v96.81c0,1.93,0.14,3.83,0.37,5.71c-0.09,1.14-0.37,2.23-0.37,3.4v512.42
		c0,30.52,27.11,55.49,60.25,55.49h782.27c33.14,0,60.25-24.97,60.25-55.49V314.62C962.44,284.1,935.33,259.13,902.19,259.13z
		 M511.06,766.61c-110.4,0-200.21-89.81-200.21-200.21c0-110.4,89.81-200.21,200.21-200.21c110.4,0,200.21,89.81,200.21,200.21
		C711.27,676.79,621.45,766.61,511.06,766.61z"/>
</g>
</svg>
