<?xml version="1.0" encoding="utf-8"?>
<!-- Generator: Adobe Illustrator 24.0.1, SVG Export Plug-In . SVG Version: 6.00 Build 0)  -->
<svg version="1.1" id="图层_1" xmlns="http://www.w3.org/2000/svg" xmlns:xlink="http://www.w3.org/1999/xlink" x="0px" y="0px"
	 viewBox="0 0 1024 1024" style="enable-background:new 0 0 1024 1024;" xml:space="preserve">
<style type="text/css">
	.st0{fill:none;stroke:#000000;stroke-width:40;stroke-linecap:round;stroke-linejoin:round;stroke-miterlimit:10;}
	.st1{fill:none;stroke:#000000;stroke-width:40;stroke-linecap:round;stroke-miterlimit:10;}
	.st2{fill:none;stroke:#000000;stroke-width:40;stroke-miterlimit:10;}
</style>
<g>
	<path d="M164.25,217.99v696.98c0,22.06,17.94,40,40,40h483.69c22.06,0,40-17.94,40-40V217.99c0-22.06-17.94-40-40-40H204.25
		C182.2,177.99,164.25,195.93,164.25,217.99z M262.38,337.63h367.43c11.05,0,20,8.95,20,20s-8.95,20-20,20H262.38
		c-11.05,0-20-8.95-20-20S251.34,337.63,262.38,337.63z M262.38,522h296.59c11.05,0,20,8.95,20,20s-8.95,20-20,20H262.38
		c-11.05,0-20-8.95-20-20S251.34,522,262.38,522z M262.38,706.38h208.04c11.05,0,20,8.95,20,20s-8.95,20-20,20H262.38
		c-11.05,0-20-8.95-20-20S251.34,706.38,262.38,706.38z"/>
	<path d="M821.18,74.97H326.05c-18.9,0-34.28,15.38-34.28,34.28v48.75h396.17c33.08,0,60,26.92,60,60v633.95h73.24
		c18.9,0,34.28-15.38,34.28-34.28V109.24C855.46,90.34,840.08,74.97,821.18,74.97z"/>
</g>
</svg>
