<?xml version="1.0" encoding="utf-8"?>
<!-- Generator: Adobe Illustrator 24.0.1, SVG Export Plug-In . SVG Version: 6.00 Build 0)  -->
<svg version="1.1" id="图层_1" xmlns="http://www.w3.org/2000/svg" xmlns:xlink="http://www.w3.org/1999/xlink" x="0px" y="0px"
	 viewBox="0 0 1024 1024" style="enable-background:new 0 0 1024 1024;" xml:space="preserve">
<style type="text/css">
	.st0{fill:none;stroke:#000000;stroke-width:40;stroke-linecap:round;stroke-linejoin:round;stroke-miterlimit:10;}
	.st1{fill:none;stroke:#000000;stroke-width:40;stroke-linecap:round;stroke-miterlimit:10;}
	.st2{fill:none;stroke:#000000;stroke-width:40;stroke-miterlimit:10;}
</style>
<g>
	<path d="M189.89,114.62v799.26c0,22.26,18.11,40.37,40.37,40.37h396.67V714.32c0-2.65,1.05-5.2,2.93-7.07
		c1.88-1.87,4.42-2.93,7.07-2.93c0,0,0,0,0.01,0l192.1,0.14V114.62c0-22.26-18.11-40.37-40.37-40.37h-558.4
		C208,74.25,189.89,92.36,189.89,114.62z M302,258.41h414.93c11.05,0,20,8.95,20,20s-8.95,20-20,20H302c-11.05,0-20-8.95-20-20
		S290.95,258.41,302,258.41z M302,466.61h334.93c11.05,0,20,8.95,20,20s-8.95,20-20,20H302c-11.05,0-20-8.95-20-20
		S290.95,466.61,302,466.61z"/>
	<polygon points="818.09,724.45 646.93,724.33 646.93,935.99 	"/>
</g>
</svg>
