<?xml version="1.0" encoding="utf-8"?>
<!-- Generator: Adobe Illustrator 24.0.1, SVG Export Plug-In . SVG Version: 6.00 Build 0)  -->
<svg version="1.1" id="图层_1" xmlns="http://www.w3.org/2000/svg" xmlns:xlink="http://www.w3.org/1999/xlink" x="0px" y="0px"
	 viewBox="0 0 1024 1024" style="enable-background:new 0 0 1024 1024;" xml:space="preserve">
<style type="text/css">
	.st0{fill:none;stroke:#000000;stroke-width:40;stroke-linecap:round;stroke-linejoin:round;stroke-miterlimit:10;}
	.st1{fill:none;stroke:#000000;stroke-width:40;stroke-linecap:round;stroke-miterlimit:10;}
	.st2{fill:none;stroke:#000000;stroke-width:40;stroke-miterlimit:10;}
</style>
<g>
	<path d="M866.07,176.57c0-22.24-18.09-40.33-40.33-40.33H680.62v1.8c0,30.09-24.48,54.57-54.57,54.57H391.63
		c-30.09,0-54.57-24.48-54.57-54.57v-1.8H191.94c-22.24,0-40.33,18.09-40.33,40.33V913.2c0,22.24,18.09,40.33,40.33,40.33h633.8
		c22.24,0,40.33-18.09,40.33-40.33V176.57z M700.53,732.25H317.15c-11.05,0-20-8.95-20-20s8.95-20,20-20h383.38
		c11.05,0,20,8.95,20,20S711.58,732.25,700.53,732.25z M700.53,551.88H317.15c-11.05,0-20-8.95-20-20s8.95-20,20-20h383.38
		c11.05,0,20,8.95,20,20S711.58,551.88,700.53,551.88z M700.53,371.51H317.15c-11.05,0-20-8.95-20-20s8.95-20,20-20h383.38
		c11.05,0,20,8.95,20,20S711.58,371.51,700.53,371.51z"/>
	<path d="M626.05,172.6c19.06,0,34.57-15.51,34.57-34.57v-11.8V108.1c0-19.06-15.51-34.57-34.57-34.57H391.63
		c-19.06,0-34.57,15.51-34.57,34.57v18.14v11.8c0,19.06,15.51,34.57,34.57,34.57H626.05z"/>
</g>
</svg>
