<?xml version="1.0" encoding="utf-8"?>
<!-- Generator: Adobe Illustrator 24.0.1, SVG Export Plug-In . SVG Version: 6.00 Build 0)  -->
<svg version="1.1" id="图层_1" xmlns="http://www.w3.org/2000/svg" xmlns:xlink="http://www.w3.org/1999/xlink" x="0px" y="0px"
	 viewBox="0 0 1024 1024" style="enable-background:new 0 0 1024 1024;" xml:space="preserve">
<style type="text/css">
	.st0{fill:none;stroke:#000000;stroke-width:40;stroke-linecap:round;stroke-linejoin:round;stroke-miterlimit:10;}
	.st1{fill:none;stroke:#000000;stroke-width:40;stroke-linecap:round;stroke-miterlimit:10;}
	.st2{fill:none;stroke:#000000;stroke-width:40;stroke-miterlimit:10;}
</style>
<g>
	<path d="M900.01,671.21H661.94v81.73c0,5.52-4.48,10-10,10H390.32c-5.52,0-10-4.48-10-10v-81.73H142.25V952.1h757.76V671.21z"/>
	<path d="M400.32,661.21v81.73h241.62v-81.73c0-5.52,4.48-10,10-10H898.3L806.45,72.1H235.81l-91.85,579.11h246.36
		C395.84,651.21,400.32,655.69,400.32,661.21z M379.27,361.66c0-11.05,8.95-20,20-20h243.73c11.05,0,20,8.95,20,20s-8.95,20-20,20
		H399.27C388.22,381.66,379.27,372.7,379.27,361.66z"/>
</g>
</svg>
