<?xml version="1.0" encoding="utf-8"?>
<!-- Generator: Adobe Illustrator 24.0.1, SVG Export Plug-In . SVG Version: 6.00 Build 0)  -->
<svg version="1.1" id="图层_1" xmlns="http://www.w3.org/2000/svg" xmlns:xlink="http://www.w3.org/1999/xlink" x="0px" y="0px"
	 viewBox="0 0 1024 1024" style="enable-background:new 0 0 1024 1024;" xml:space="preserve">
<style type="text/css">
	.st0{fill:none;stroke:#000000;stroke-width:40;stroke-linecap:round;stroke-linejoin:round;stroke-miterlimit:10;}
	.st1{fill:none;stroke:#000000;stroke-width:40;stroke-linecap:round;stroke-miterlimit:10;}
	.st2{fill:none;stroke:#000000;stroke-width:40;stroke-miterlimit:10;}
</style>
<g>
	<path d="M506.12,206.98L379.45,333.66h384.02c26.34,0,49.34,16.88,57.23,42.01l129.15,410.98V249.08
		c0-32.83-26.71-59.54-59.54-59.54H548.22C532.32,189.55,517.37,195.74,506.12,206.98z"/>
	<path d="M77.64,369.99c-7.62,10.38-9.77,23.37-5.91,35.65L200,813.82c5.26,16.75,20.6,28,38.15,28h708.08L801.62,381.66
		c-5.26-16.75-20.6-28-38.15-28H355.31c0,0-0.01,0-0.01,0H109.88C97.01,353.66,85.26,359.61,77.64,369.99z M373.14,577.74h213.43
		c11.05,0,20,8.95,20,20s-8.95,20-20,20H373.14c-11.05,0-20-8.95-20-20S362.1,577.74,373.14,577.74z"/>
</g>
</svg>
