<?xml version="1.0" encoding="utf-8"?>
<!-- Generator: Adobe Illustrator 24.0.1, SVG Export Plug-In . SVG Version: 6.00 Build 0)  -->
<svg version="1.1" id="图层_1" xmlns="http://www.w3.org/2000/svg" xmlns:xlink="http://www.w3.org/1999/xlink" x="0px" y="0px"
	 viewBox="0 0 1024 1024" style="enable-background:new 0 0 1024 1024;" xml:space="preserve">
<style type="text/css">
	.st0{fill:none;stroke:#000000;stroke-width:40;stroke-linecap:round;stroke-linejoin:round;stroke-miterlimit:10;}
	.st1{fill:none;stroke:#000000;stroke-width:40;stroke-linecap:round;stroke-miterlimit:10;}
	.st2{fill:none;stroke:#000000;stroke-width:40;stroke-miterlimit:10;}
</style>
<g>
	<path d="M720.44,135.14c0-20.97-16.17-38.04-36.04-38.04H334.53c-19.87,0-36.04,17.06-36.04,38.04v66.96h421.94V135.14z"/>
	<path d="M705.3,937.1c17.04,0,30.85-12.9,30.85-28.82V481.66H282.77v426.62c0,15.92,13.81,28.82,30.85,28.82H705.3z M409.14,596.37
		h200.65c11.05,0,20,8.95,20,20s-8.95,20-20,20H409.14c-11.05,0-20-8.95-20-20S398.09,596.37,409.14,596.37z M409.14,769.89h200.65
		c11.05,0,20,8.95,20,20s-8.95,20-20,20H409.14c-11.05,0-20-8.95-20-20S398.09,769.89,409.14,769.89z"/>
	<path d="M137.96,608.24h124.81V481.53h-46.34c-11.05,0-20-8.95-20-20s8.95-20,20-20h586.06c11.05,0,20,8.95,20,20s-8.95,20-20,20
		h-46.34v126.71h124.81c22.74,0,41.24-18.5,41.24-41.25V263.34c0-22.74-18.5-41.24-41.24-41.24H137.96
		c-22.74,0-41.24,18.5-41.24,41.24v303.65C96.72,589.74,115.22,608.24,137.96,608.24z"/>
</g>
</svg>
