<?xml version="1.0" encoding="utf-8"?>
<!-- Generator: Adobe Illustrator 24.0.1, SVG Export Plug-In . SVG Version: 6.00 Build 0)  -->
<svg version="1.1" id="图层_1" xmlns="http://www.w3.org/2000/svg" xmlns:xlink="http://www.w3.org/1999/xlink" x="0px" y="0px"
	 viewBox="0 0 1024 1024" style="enable-background:new 0 0 1024 1024;" xml:space="preserve">
<style type="text/css">
	.st0{fill:none;stroke:#000000;stroke-width:40;stroke-linecap:round;stroke-linejoin:round;stroke-miterlimit:10;}
	.st1{fill:none;stroke:#000000;stroke-width:40;stroke-linecap:round;stroke-miterlimit:10;}
	.st2{fill:none;stroke:#000000;stroke-width:40;stroke-miterlimit:10;}
</style>
<g>
	<path d="M735.95,919.65V436.3l-174.7,0.12c0,0,0,0-0.01,0c-2.65,0-5.19-1.05-7.07-2.93c-1.88-1.88-2.93-4.42-2.93-7.07V208.01
		H189.59c-19.87,0-36.03,16.16-36.03,36.03v675.61c0,19.87,16.16,36.03,36.03,36.03h510.32
		C719.78,955.68,735.95,939.52,735.95,919.65z M255.15,387.81h165.97c11.05,0,20,8.95,20,20s-8.95,20-20,20H255.15
		c-11.05,0-20-8.95-20-20S244.11,387.81,255.15,387.81z M255.15,567.3h287.81c11.05,0,20,8.95,20,20s-8.95,20-20,20H255.15
		c-11.05,0-20-8.95-20-20S244.11,567.3,255.15,567.3z M634.36,786.78h-379.2c-11.05,0-20-8.95-20-20s8.95-20,20-20h379.2
		c11.05,0,20,8.95,20,20S645.4,786.78,634.36,786.78z"/>
	<polygon points="723.99,284.08 877.76,283.98 723.99,93.94 	"/>
	<polygon points="571.24,416.41 725.01,416.3 571.24,226.27 	"/>
	<path d="M713.99,304.09c-2.65,0-5.19-1.05-7.07-2.93c-1.88-1.88-2.93-4.42-2.93-7.07V75.68H342.35
		c-19.87,0-36.03,16.16-36.03,36.03v76.29h254.93c0.37,0,0.73,0.02,1.08,0.06c0.09,0.01,0.17,0.03,0.26,0.04
		c0.27,0.04,0.54,0.08,0.81,0.14c0.1,0.02,0.19,0.05,0.29,0.07c0.25,0.06,0.5,0.13,0.74,0.21c0.1,0.03,0.2,0.07,0.3,0.11
		c0.23,0.09,0.46,0.18,0.68,0.28c0.11,0.05,0.21,0.1,0.31,0.15c0.21,0.11,0.41,0.22,0.62,0.34c0.11,0.06,0.21,0.12,0.31,0.19
		c0.19,0.13,0.38,0.26,0.57,0.4c0.1,0.07,0.2,0.14,0.29,0.22c0.21,0.17,0.4,0.34,0.59,0.52c0.06,0.06,0.13,0.11,0.19,0.17
		c0.25,0.25,0.48,0.51,0.71,0.78c0.01,0.01,0.02,0.02,0.03,0.03L753.72,420c0.16,0.19,0.3,0.4,0.44,0.6c0.07,0.1,0.14,0.21,0.2,0.31
		c0.11,0.18,0.23,0.36,0.33,0.54c0.07,0.13,0.13,0.26,0.2,0.39c0.07,0.14,0.14,0.28,0.2,0.42c0.06,0.14,0.12,0.29,0.17,0.43
		c0.05,0.14,0.11,0.28,0.15,0.42c0.05,0.15,0.09,0.29,0.14,0.44c0.04,0.15,0.08,0.3,0.12,0.46c0.03,0.14,0.07,0.28,0.09,0.43
		c0.03,0.18,0.06,0.37,0.08,0.55c0.02,0.12,0.03,0.24,0.05,0.36c0.03,0.3,0.04,0.6,0.05,0.9c0,0.01,0,0.02,0,0.03c0,0,0,0,0,0
		c0,0,0,0,0,0v397.07h96.72c19.87,0,36.03-16.16,36.03-36.03V303.97L713.99,304.09C714,304.09,714,304.09,713.99,304.09z"/>
</g>
</svg>
