<?xml version="1.0" encoding="utf-8"?>
<!-- Generator: Adobe Illustrator 24.0.1, SVG Export Plug-In . SVG Version: 6.00 Build 0)  -->
<svg version="1.1" id="图层_1" xmlns="http://www.w3.org/2000/svg" xmlns:xlink="http://www.w3.org/1999/xlink" x="0px" y="0px"
	 viewBox="0 0 1024 1024" style="enable-background:new 0 0 1024 1024;" xml:space="preserve">
<style type="text/css">
	.st0{fill:none;stroke:#000000;stroke-width:40;stroke-linecap:round;stroke-linejoin:round;stroke-miterlimit:10;}
	.st1{fill:none;stroke:#000000;stroke-width:40;stroke-linecap:round;stroke-miterlimit:10;}
	.st2{fill:none;stroke:#000000;stroke-width:40;stroke-miterlimit:10;}
</style>
<g>
	<path d="M229.64,74.25c-22.26,0-40.37,18.11-40.37,40.37v799.26c0,22.26,18.11,40.37,40.37,40.37h558.4
		c22.26,0,40.37-18.11,40.37-40.37V324.04l-192.1,0.14c0,0,0,0-0.01,0c-2.65,0-5.19-1.05-7.07-2.93c-1.88-1.88-2.93-4.42-2.93-7.07
		V74.25H229.64z M301.37,273.82h181.61c11.05,0,20,8.95,20,20s-8.95,20-20,20H301.37c-11.05,0-20-8.95-20-20
		S290.33,273.82,301.37,273.82z M716.3,666.61c11.05,0,20,8.95,20,20s-8.95,20-20,20H301.37c-11.05,0-20-8.95-20-20s8.95-20,20-20
		H716.3z M636.3,490.22c0,11.05-8.95,20-20,20H301.37c-11.05,0-20-8.95-20-20s8.95-20,20-20H616.3
		C627.35,470.22,636.3,479.17,636.3,490.22z"/>
	<polygon points="646.3,304.17 817.47,304.05 646.3,92.51 	"/>
</g>
</svg>
