<?xml version="1.0" encoding="utf-8"?>
<!-- Generator: Adobe Illustrator 24.0.1, SVG Export Plug-In . SVG Version: 6.00 Build 0)  -->
<svg version="1.1" id="图层_1" xmlns="http://www.w3.org/2000/svg" xmlns:xlink="http://www.w3.org/1999/xlink" x="0px" y="0px"
	 viewBox="0 0 1024 1024" style="enable-background:new 0 0 1024 1024;" xml:space="preserve">
<style type="text/css">
	.st0{fill:none;stroke:#000000;stroke-width:40;stroke-linecap:round;stroke-linejoin:round;stroke-miterlimit:10;}
	.st1{fill:none;stroke:#000000;stroke-width:40;stroke-linecap:round;stroke-miterlimit:10;}
	.st2{fill:none;stroke:#000000;stroke-width:40;stroke-miterlimit:10;}
</style>
<g>
	<path d="M309.55,324.01c26.26,0,47.62-21.36,47.62-47.62s-21.36-47.62-47.62-47.62s-47.62,21.36-47.62,47.62
		S283.29,324.01,309.55,324.01z"/>
	<path d="M173.87,962.1h674.37c27.61,0,50-22.39,50-50v-800c0-27.61-22.39-50-50-50H173.87c-27.61,0-50,22.39-50,50v800
		C123.87,939.72,146.26,962.1,173.87,962.1z M443.46,708.64L322.51,829.59c-3.91,3.91-9.02,5.86-14.14,5.86s-10.24-1.95-14.14-5.86
		l-57.02-57.02c-7.81-7.81-7.81-20.47,0-28.28c7.81-7.81,20.47-7.81,28.29,0l42.88,42.88l106.8-106.8c7.81-7.81,20.47-7.81,28.29,0
		S451.27,700.83,443.46,708.64z M486.44,256.38h293.74c11.05,0,20,8.95,20,20s-8.95,20-20,20H486.44c-11.05,0-20-8.95-20-20
		S475.4,256.38,486.44,256.38z M486.44,499.13h293.74c11.05,0,20,8.95,20,20s-8.95,20-20,20H486.44c-11.05,0-20-8.95-20-20
		S475.4,499.13,486.44,499.13z M486.44,738.42h293.74c11.05,0,20,8.95,20,20s-8.95,20-20,20H486.44c-11.05,0-20-8.95-20-20
		S475.4,738.42,486.44,738.42z M443.46,441.06c7.81,7.81,7.81,20.47,0,28.28L322.51,590.29c-3.91,3.9-9.02,5.86-14.14,5.86
		c-5.12,0-10.24-1.95-14.14-5.86l-57.02-57.02c-7.81-7.81-7.81-20.47,0-28.28c7.81-7.81,20.47-7.81,28.29,0l42.88,42.88l106.8-106.8
		C422.98,433.25,435.65,433.25,443.46,441.06z M309.55,188.76c48.32,0,87.62,39.31,87.62,87.62s-39.31,87.62-87.62,87.62
		c-48.32,0-87.62-39.31-87.62-87.62S261.24,188.76,309.55,188.76z"/>
</g>
</svg>
