<?xml version="1.0" encoding="utf-8"?>
<!-- Generator: Adobe Illustrator 24.0.1, SVG Export Plug-In . SVG Version: 6.00 Build 0)  -->
<svg version="1.1" id="图层_1" xmlns="http://www.w3.org/2000/svg" xmlns:xlink="http://www.w3.org/1999/xlink" x="0px" y="0px"
	 viewBox="0 0 1024 1024" style="enable-background:new 0 0 1024 1024;" xml:space="preserve">
<style type="text/css">
	.st0{fill:none;stroke:#000000;stroke-width:40;stroke-linecap:round;stroke-linejoin:round;stroke-miterlimit:10;}
	.st1{fill:none;stroke:#000000;stroke-width:40;stroke-linecap:round;stroke-miterlimit:10;}
	.st2{fill:none;stroke:#000000;stroke-width:40;stroke-miterlimit:10;}
</style>
<g>
	<polygon points="383.67,94.66 212.5,306.2 383.67,306.32 	"/>
	<path d="M529.68,406.55c-85.66,0-155.36,69.69-155.36,155.36s69.69,155.36,155.36,155.36c85.66,0,155.36-69.69,155.36-155.36
		S615.35,406.55,529.68,406.55z M623.54,525.62L522.68,626.48c-3.91,3.9-9.02,5.86-14.14,5.86c-5.12,0-10.24-1.95-14.14-5.86
		l-58.58-58.58c-7.81-7.81-7.81-20.47,0-28.28c7.81-7.81,20.47-7.81,28.28,0l44.43,44.43l86.71-86.71c7.81-7.81,20.47-7.81,28.28,0
		C631.35,505.15,631.35,517.81,623.54,525.62z"/>
	<path d="M800.33,76.4H403.67v239.93c0,2.65-1.05,5.2-2.93,7.07c-1.88,1.87-4.42,2.93-7.07,2.93c0,0,0,0-0.01,0l-192.1-0.14v589.84
		c0,22.26,18.11,40.37,40.37,40.37h558.4c22.26,0,40.37-18.11,40.37-40.37V116.77C840.7,94.51,822.59,76.4,800.33,76.4z
		 M529.68,757.26c-107.72,0-195.36-87.64-195.36-195.36c0-107.72,87.64-195.36,195.36-195.36c107.72,0,195.36,87.64,195.36,195.36
		C725.04,669.63,637.4,757.26,529.68,757.26z"/>
</g>
</svg>
