<?xml version="1.0" encoding="utf-8"?>
<!-- Generator: Adobe Illustrator 24.0.1, SVG Export Plug-In . SVG Version: 6.00 Build 0)  -->
<svg version="1.1" id="图层_1" xmlns="http://www.w3.org/2000/svg" xmlns:xlink="http://www.w3.org/1999/xlink" x="0px" y="0px"
	 viewBox="0 0 1024 1024" style="enable-background:new 0 0 1024 1024;" xml:space="preserve">
<style type="text/css">
	.st0{fill:none;stroke:#000000;stroke-width:40;stroke-linecap:round;stroke-linejoin:round;stroke-miterlimit:10;}
	.st1{fill:none;stroke:#000000;stroke-width:40;stroke-linecap:round;stroke-miterlimit:10;}
	.st2{fill:none;stroke:#000000;stroke-width:40;stroke-miterlimit:10;}
</style>
<g>
	<path d="M81.13,248.37v537.56l129.15-410.98c7.9-25.13,30.9-42.01,57.23-42.01h384.02L524.86,206.27
		c-11.25-11.25-26.2-17.44-42.1-17.44H140.67C107.84,188.83,81.13,215.54,81.13,248.37z"/>
	<path d="M921.1,352.94H267.52c-17.56,0-32.89,11.25-38.15,28L84.75,841.1h708.08c17.56,0,32.89-11.25,38.15-28l128.27-408.18
		c3.86-12.28,1.7-25.28-5.91-35.65C945.73,358.89,933.97,352.94,921.1,352.94z"/>
</g>
</svg>
