<?xml version="1.0" encoding="utf-8"?>
<!-- Generator: Adobe Illustrator 24.0.1, SVG Export Plug-In . SVG Version: 6.00 Build 0)  -->
<svg version="1.1" id="图层_1" xmlns="http://www.w3.org/2000/svg" xmlns:xlink="http://www.w3.org/1999/xlink" x="0px" y="0px"
	 viewBox="0 0 1024 1024" style="enable-background:new 0 0 1024 1024;" xml:space="preserve">
<style type="text/css">
	.st0{fill:none;stroke:#000000;stroke-width:40;stroke-linecap:round;stroke-linejoin:round;stroke-miterlimit:10;}
	.st1{fill:none;stroke:#000000;stroke-width:40;stroke-linecap:round;stroke-miterlimit:10;}
	.st2{fill:none;stroke:#000000;stroke-width:40;stroke-miterlimit:10;}
</style>
<g>
	<path d="M889.93,189.55H547.83c-15.9,0-30.85,6.19-42.1,17.44L379.06,333.66h384.02c26.34,0,49.34,16.88,57.23,42.01l129.15,410.98
		V249.08C949.46,216.25,922.75,189.55,889.93,189.55z"/>
	<path d="M801.23,381.66c-5.26-16.75-20.6-28-38.15-28H354.92c0,0-0.01,0-0.01,0H109.49c-12.87,0-24.62,5.95-32.24,16.33
		c-7.62,10.38-9.77,23.37-5.91,35.65l128.27,408.18c5.26,16.75,20.6,28,38.15,28h708.08L801.23,381.66z M586.18,617.74h-79.94
		l23.98,81.04c3.13,10.59-2.91,21.72-13.5,24.85c-1.89,0.56-3.8,0.83-5.68,0.83c-8.63,0-16.6-5.63-19.17-14.33l-27.34-92.39h-91.77
		c-11.05,0-20-8.95-20-20s8.95-20,20-20h79.94l-23.98-81.04c-3.13-10.59,2.91-21.72,13.5-24.85c10.59-3.14,21.72,2.91,24.85,13.5
		l27.34,92.39h91.78c11.05,0,20,8.95,20,20S597.22,617.74,586.18,617.74z"/>
</g>
</svg>
