<?xml version="1.0" encoding="utf-8"?>
<!-- Generator: Adobe Illustrator 24.0.1, SVG Export Plug-In . SVG Version: 6.00 Build 0)  -->
<svg version="1.1" id="图层_1" xmlns="http://www.w3.org/2000/svg" xmlns:xlink="http://www.w3.org/1999/xlink" x="0px" y="0px"
	 viewBox="0 0 1024 1024" style="enable-background:new 0 0 1024 1024;" xml:space="preserve">
<style type="text/css">
	.st0{fill:none;stroke:#000000;stroke-width:40;stroke-linecap:round;stroke-linejoin:round;stroke-miterlimit:10;}
	.st1{fill:none;stroke:#000000;stroke-width:40;stroke-linecap:round;stroke-miterlimit:10;}
	.st2{fill:none;stroke:#000000;stroke-width:40;stroke-miterlimit:10;}
</style>
<g>
	<path d="M93.92,405.35l386.87,239.66c17.57,10.88,39.78,10.88,57.34,0L925,405.35c34.36-21.29,34.36-71.28,0-92.56L538.13,73.13
		c-17.57-10.88-39.78-10.88-57.34,0L93.92,312.79C59.56,334.08,59.56,384.06,93.92,405.35z"/>
	<path d="M944.05,523.53L524.98,783.13c-9.57,5.93-21.46,5.93-31.03,0L74.88,523.53c-9.39-5.82-21.72-2.92-27.53,6.47
		c-5.82,9.39-2.92,21.72,6.47,27.53l419.07,259.61c11.28,6.99,23.93,10.48,36.58,10.48c12.65,0,25.3-3.5,36.58-10.48l419.07-259.61
		c9.39-5.82,12.29-18.14,6.47-27.53S953.44,517.71,944.05,523.53z"/>
	<path d="M944.05,680.94L524.98,940.55c-9.57,5.93-21.46,5.93-31.03,0L74.88,680.94c-9.39-5.82-21.72-2.92-27.53,6.47
		c-5.82,9.39-2.92,21.72,6.47,27.53l419.07,259.61c11.28,6.99,23.93,10.48,36.58,10.48c12.65,0,25.3-3.5,36.58-10.48l419.07-259.61
		c9.39-5.82,12.29-18.14,6.47-27.53C965.77,678.02,953.44,675.12,944.05,680.94z"/>
</g>
</svg>
