<?xml version="1.0" encoding="utf-8"?>
<!-- Generator: Adobe Illustrator 24.0.1, SVG Export Plug-In . SVG Version: 6.00 Build 0)  -->
<svg version="1.1" id="图层_1" xmlns="http://www.w3.org/2000/svg" xmlns:xlink="http://www.w3.org/1999/xlink" x="0px" y="0px"
	 viewBox="0 0 1024 1024" style="enable-background:new 0 0 1024 1024;" xml:space="preserve">
<style type="text/css">
	.st0{fill:none;stroke:#000000;stroke-width:40;stroke-linecap:round;stroke-linejoin:round;stroke-miterlimit:10;}
	.st1{fill:none;stroke:#000000;stroke-width:40;stroke-linecap:round;stroke-miterlimit:10;}
	.st2{fill:none;stroke:#000000;stroke-width:40;stroke-miterlimit:10;}
</style>
<g>
	<path d="M160.34,112.82v800c0,27.61,22.39,50,50,50h598.24c27.61,0,50-22.39,50-50v-800c0-27.61-22.39-50-50-50H210.34
		C182.73,62.82,160.34,85.2,160.34,112.82z M289.69,256.98h439.54c11.05,0,20,8.95,20,20s-8.95,20-20,20H289.69
		c-11.05,0-20-8.95-20-20S278.65,256.98,289.69,256.98z M289.69,465.18h439.54c11.05,0,20,8.95,20,20s-8.95,20-20,20H289.69
		c-11.05,0-20-8.95-20-20S278.65,465.18,289.69,465.18z M289.69,673.39h439.54c11.05,0,20,8.95,20,20s-8.95,20-20,20H289.69
		c-11.05,0-20-8.95-20-20S278.65,673.39,289.69,673.39z"/>
</g>
</svg>
